<mxfile host="app.diagrams.net" modified="2023-11-11T23:54:26.390Z" agent="Mozilla/5.0 (Windows NT 10.0; Win64; x64) AppleWebKit/537.36 (KHTML, like Gecko) Chrome/119.0.0.0 Safari/537.36" etag="Sm0ANL1r7pVIJNdckUwZ" version="21.5.0" type="device">
  <diagram name="Page-1" id="qeTmwwB46yE9QAdprO89">
    <mxGraphModel dx="941" dy="513" grid="1" gridSize="10" guides="1" tooltips="1" connect="1" arrows="1" fold="1" page="1" pageScale="1" pageWidth="850" pageHeight="1100" math="0" shadow="0">
      <root>
        <mxCell id="0" />
        <mxCell id="1" parent="0" />
        <mxCell id="0IAkI9OCKzNmR89N-cbS-1" value="" style="shape=image;verticalLabelPosition=bottom;labelBackgroundColor=default;verticalAlign=top;aspect=fixed;imageAspect=0;image=data:image/jpeg,/9j/2wBDABALDA4MChAODQ4SERATGCgaGBYWGDEjJR0oOjM9PDkzODdASFxOQERXRTc4UG1RV19iZ2hnPk1xeXBkeFxlZ2P/2wBDARESEhgVGC8aGi9jQjhCY2NjY2NjY2NjY2NjY2NjY2NjY2NjY2NjY2NjY2NjY2NjY2NjY2NjY2NjY2NjY2NjY2P/wgARCAI/AvEDASIAAhEBAxEB/8QAGgABAAMBAQEAAAAAAAAAAAAAAAMEBQIBBv/EABgBAQADAQAAAAAAAAAAAAAAAAABAgME/9oADAMBAAIQAxAAAAH6AHkM+bNcuM25Vu1NTWmvKaZvmmmMxpiivImjQ3IbUyU0OmIBd0a3wWxlTWPxBXSdUnraRFEWkHZIrCzufP8AEW+lfLTRezHFFbO0g7RIreFpHyTKkxKiiLSvISK/JaR8kypKT+89a4+OIc9bKtImVBxC0hSmVe4Too5WVaQlQcFpCJlXqFhFxKwqykqDgtbOBMj6r3N0aaehYABm6WbNMdera89m3k6dNZzym3GfWhptdvYnqfokE98FC/hXykjNME8F6J2/THr8oX4Jr83VtcTXO0eua6c0b/RBL1yVfLo5jk9M7Q75OaV7orzdclbi76c8djPvS8nNO70Vp+uSvDf6OOehn3ZuTvrnrbkjpXfMuipa98i8VTQ9PPOvChZnHlaz6UrnvhHT0PTl14UprA8r2BSu++HNHQ9OJuO75S/TfM/TI9FNgAGbpZs0r154dMdjmjZz27gnjrpgPfKdQGlo0rt+ZhbuFrzhfFJGPpu/m7ue+vlV6c1C+XvnqJ898kOPJYpevUOfpPm/p66eIrGe3zccne3NB5bqIeyekKWKY98SxMXvloreXqI96uJoO+Jr75Z6raoLV89WImv5Jwee9yprLNdDyadNJ7IiPy5AmL1ZRVW6o8seJgScIeeykPq4ml7cpo7+m+Z+mpr6KbAAM3SzZpThuV9MaurZU08FdaGZ9FzXT565qdp89LZMLd7tn8+sV9ecAAB1z2WatupFublO8iGvbqE00VmLZ/03zP00WzNHG2q2+fs1mmVmjbqIteQ9plg7hRfVZItV0s2Sa6uRYrxaxNnzTEtQmutHR5rfkWot1BcrxonvUyJk2KJMaPNCasxSRLV1szuGLe38+VE1T3yYtd0kTP7XSvOqVbcauVLNdPHmhT39N8z9NTT0U2AAZulmzShFG255NLJ6idtiKabPmKmNpijdYiJ2sfnm1PfC1AAAHfA0s/lEr1FK1VEWbdC1W9D6b5n6eLZt/rumvzdiv5rz2qMsSLKtZT5FwmtxxWiy3UTW7VmrRKSNMASceAAABJGAEkYAkjBJGAAHfAuQWasWju0rKJqFqqd/TfM/TU19FNgAGbpZs0xxtzAAAAAAAAAAAAAAJIwvUReUUWkt1tKJr+WEWr+9SldoVomHzy7MVGyrfG80as1gTcTHHvulE5fOtEYI0xAAAAAAAAAAA0qUleLeXaVlE1CzWO/pvmfpqa+imwADN0s2aY425gAAAAAAAAAAAPPOJst+fI7CePI7Bx7HJpiE1l0shFtjzIROp1kjb8xRrMkbknz5O37hjb5xiNuX58ncYYtqiaW1QW1QW1QW1QW1QW1QW1QW1QW1QW1QW1QW1QW1QWK5Md/TfM/TZ7eimwAqlnOQzWj337bOosLUrrEcxGmsIoiYAAAAAAAExU89mw64CxE1ycikjk25wtmAAALR1qTY+e+tBkXUVK/0+NNa2tbz4te4xZTuLaypih3x9DalWxJTz2sKuiQKvSLCxmrWlbRK/ntZDM3k1+eGmIAAAAAHf03zP02e3opsAoX6JUlimPHo8ejytaqzSvNDPrhTE1AAAAAAATQ+lrnhXTuraro586TXz0mAAAAG3ibldK1G7URJBarTFvZxNvPbLzdChfLWy9fKi0unmakTkb+Bvp9rzZdbS25Yk512netSxka+DE6LO3DJ18jXMjXyNg+erWqumATAAAAAHf03y+3TW8M9wFG9RKk0MwAAq2qs0pp5deekJgAAAAAAAAAAAAAAABbqD6bF61M98G7rV0WMmvWmv02bS1otjy7nAzPc6Y9+h+dkmm5U7sU2rX4kTS7tJiapKiffAjgt+THSrlzHHhpgAAAAAA98G5d+X2897wpqo3qJUmhmAAFW1VmleaPvXCqJqAAAAAAAAAAAAAAAAOw26tdM7rT4Rme6kZQ6sWDMavhmcanBmi1AAAAAAAAAAAAABKRNbmt8v3ri1LaoifqqN6jj11JoZgABVtVZpBJFb0wzxaoB72RpREAAAAAAAAAAAABPAL3NNE25KAs2c0WbGcLMlIXoIAEwAAAAAAAAAAAAB79HhfRZ7eim1TA+p+X0w8F8vqqN6vh2Z00vCOXI6RJiWrLBNavXDXnaGf3E31LmLT7OHpZ6XY68cXzOOud+UAAAAAB57wnlEy6JUQlRCVEJZK1m2fovkAAAAAAA564iY3DLp7cDtwO3A7mrWb5ei+QAAAAAHv0nzUtb/SM3nPa1gd8a4BNfqhh2M3SzZpQ7ptcAmoACWKY94lsVtV0KW1nrV5vRRfA57425QkAAAAA474iYBj1gAALNazfH0aYgAAAAAAOO+ImAY9YAACzWs3x9GmIAAAAAAAAAH1Qw7GbpZs0xxtzAAAAEnhz33tU0w/PoeYt84mhviEgAAAAHHfETAMesAABZrWb4+jTEAAAAAABx3xEwDHrAAAWa1m+Po0xAAAAA54Wcemsmgi3ru1CnJDNrgF8/qhh2M3SzZpjjbmAAAAklrEzbGHJS+1xkotzF75piAAAAAA474iYBj1gAALNazfH0aYgAAAAAAOO+ImAY9YAACzWs3x9GmIAAAAEfkkWXR74Vv68CbjvXALZ/VDDsZulmzTHG3MAAAuU5E6cdTit+9vB0aW0OKnFdM+LvjbmCYAAAAAcd8xNd2y6eHY4djh2OLMM18vRfIAAAAAABx35E1krPoiSiJKIkoisxy2yC+YAAAAEUsUmHUikji3U8EpBNDNrgF8vqjnDs6zbtGaZEvNrTKk6Wz599lTz7od0vl+aPsxmdaEJTuV9yls7zV4jT5/ieDXnCYAAAAAAAAAAAAAAAAAAAAAAAAAAAAAAA5j6ZdHLrmtz3odxS64BbP6qtZr4dmTNzMRpRElEXFiNGZ73Nvy1QgDq1TRN3ymT1yTUAAAAAAAAAAAAA8grewrXotE0ujLWs8mee3yAAAAAAAAAAAAAAiswcY9U8BW0limE0UuuAXy+qr2K+HZmzQzHoAEckaKNurY156ItQAAAAAAAAAAAAAAAADmCennva+n+T+spqAgnHzHevi3ykGmAAAAAAAAAAAAACzWniZY+O4tWerUAA+qr2K+HZmzQzHoAEckaKM0VjXmoi1QAAAAAAAAAAAAAAAAOc7Zxcui39Z8n9ZXQAB839JjzSoNuYAAAAAAAAAAAAAAAAAD6qvYr4dmbNDMegARyRop2KvevNXFqgAWLEqmkUWgi1RZ8KUtqyZkVzqYrNOGLZ9LdwrZhagAAAAAAHNC/Xz39+s+T+spqAB583pZds5BrzgAAAAAAAAAAAAAAAAAfVV7EGHZmTcyHj0ePR5HLGjLG/IAABq+0LFNLvlOJOh5VQudZkpd8pxG1Fnlr+Dcp2zC1AAAAAAAOa9mGms30fys1NfpWN6bFDNrCZ7rzhNQAAAAAAAAAAAAAAAAAPqvPWHZzn6OdNM27mzaZROVs+nIAAAA7sRzRbr3z2tq8viY9868T3n6FOayevSOGaGagAAAAAAAAAAAAOueizDbrZ7w2qt+a1YbFe1LcdmDPasNeccnSG1W/HmhSTwhkmvQmoAAAAAAAH1Qw7GbpZs0xxtzAAAAAAAAAAAAAAAAAAAAAAAAAAOeoK3tRV2XRLYpJizHERdjq8xa31HJvyc+cfR5dPFkrcCthfTQIweoJ9uYJqAAAAAAB9UMOxm6WbNMcbcwAAAAAAAAAAAAAAAAAAAAAAAAACCeCmnAz6AAHPXJYkjk25LG3m6WPUCQAMSvoZ+nOF8wAAAAAAPqlNh2W86ajNM8bcwAAAAAAAAAAAAAAAAAAAAAAAAACCfmLVk9jPeg01b5jTGZ5a5tkk891wu63zf0eHX6EgDwyafPWnOF8wAAAAAAKnUTDsl549J0ZEiMiRGJEYkRiRGJEY7nq2tMQvmOT1XZ7WFu8YzcrmX75xNZBfMAAAAAAAAAAAABbqWK3sI2e8iMVeffNuUCvz3xj11/LEMTySHFvnw6sV7GvOFswAAAAAAKIw7APXg9eD14PfeR089AB4dW6lq+Po0xc9cpg6r94df14APMLe4Pm5I5NeYLUAAAHZw65CTw4JSJbRNRbFRbFRbFRb0InEbXicZueJxG7CjIbWLNS7oRbCbskT883ZDGr/AEEacNvWz5Z9BFMYjcroy1tNai2Ki2Ki1BMcN+1TX5Zu4lqcia0Rh2AAAAAPfPTx74AdXKdyaBtzOepotjT17GPV9eAADFraNHTDgXyAAAWa1uJ8q3KZNJHaiaHnXNqk8AAAA18iSLbMGerbR5oJader4auJJHNbtrKkidOOgidCTLGrxmjT0PnCdiHNGjVgjmvItQABr5GzW+iMullalCaYo25aIw7QAAAAHvg98AeHdylcmno25nPXKaEvXmHX9cAAVjKign15wtmABs5lipW/F6jbmsufcpplu07ETS865tS1HPFW1cmtWFeopst+HPXGaqYymjfifmur9K2eli3qKQtQDU7pTU1oSwyXys+U54tDo5siLmfZrF2fP9ixzxaurWj5raG/QszW3U5gT9R785ZprtYUUFqBbOiMOwAAAA8HvjwAA6u07umIXxc9eFaeJj1fVe/M3TZZFc1sHiWaujXnAAAu1ZI4txbqdzFmn3wSXaFiJreE1t8QonmeCSYnqSRp+or2PcOrO7vezXM0nqcrO0c3TCzTmhmoTAGp3kWq3q2a/lqbuO9reLXx/Zro5tmsnQtYtiJhk44tTbz68lbwa2T7NdXJtVUhNQAKKTnDs5deorra1Ki2Ki2Ki2Ki2Ki2Ki2TX0IJ74lvXPnX0mSURagAAAAADn2CmkylPXSZFCW1aUkVuC37HyTKU5L7FCW/K0xt+/Px10+lYXhvPmpTTpxwzS0q2LVkGmDnqCt5VOWms6OIsqsxIgiLiISqnZYRxFlUnJEMJc9gmtToXyaLYpry7Z7Alm6WbNMcbcwAAAAAA9PpZPPcOvzzon5jiWLfjAAAAAA8r2I89qF2Tmm3NW32VZ++CCK96cc9kULc3ieK1rsqWO+CKvoenHPYoWbHhxWtelS375NZBtyoJ4qa0bFjzPfmtZ6KVvvg4p6HRG68Kc1nw5gn6KNzvg5paHRFNxJfL3Ro/TTR6Z9AAHmdo0ZpiDbmAAAAAAA1tP5axTX6Gjm1gL5AAAAAAAAAAAAAAAfUe4vuXRssYbLGEuVYr6YhNQAAAAAAAAAAAO/pvnPo89vRTYADx6MyPWWpktYjJawyWsMlrDJawyWsMlrDJawyWsMlrDJawyWsMlrDJawyWsMlrDJawyWsMlrDJawyWsMlrDJawyWsMlrDJawyWsMlrDJawyWsMlrDJawyWsMlrDJawyWsMlrDJawyWsMlrDJawyWv4V7Hvlb+hIH/xAAsEAABAwIFAwUAAgMBAAAAAAACAAEDERIEEBMUMSAhMiIwM0BQIzQkQWBE/9oACAEBAAEFAs5T0wMyN8ghuHbrbp4HWgS0CWgS26262/t1VVVVVVVVVVVVTYqKm7iW7iUhM8lVVVVVVVVVVVVVVVVVVVVVVVVeqqrlVVzrnVVyqq51zqq5VWHxF3s43wybDA7MLA3s7YFKNkmcOHeRNhokeEF0QuLvw70V+d6Hvk5UTFV06vzvQvXJ3omKrp1em4TlRC92TvRX5Or03dm4RJ3omeuTurs7k3fJ3orq5Ork2VyZ65O9Fdk6uTJuMPPd7GN8MmxJMwFeORmwMWJdNiTUcon0bkkZXllCF8meLCsb8H45vzF4qRR+aPhf6ReUXCkQeaLhD4o/KLKTgfJPkHg3CJScxeSPxzfmLxUij80XCbxR+UWUnA+SfIfBuA8+vG+H8ekditJQ9o0/ZpDvLLhRHeHVg/mzn+F+GVc6qudc651Vc651zqq5Mq51ybhEvSvTl2Xpz9K7Zdl6c/Tn6V2y7L05+nJuA8+vG+AxXDIFoD4lypvi6MJ1gVhgTGOWLlrnXOvRXIQG2wVYKl+WvRXOvXXOvXTopnTOnRTOmdOkPPrxvgAdpaJsVRhO8UbXB0YUaB1hIUbtiyR4ky6Garu1HQgRIwcMmaqdnbIfHXjZ1L8uidj4c2BBGUjnGUakB4yyYHeNRwOY7fIBcy2pohcHTwGwFhyEc44SkEhcXQjcQREZyQlHkQOLbaS1CBGhw5uRgQOngkZjgMBUcRyJ4yYzGwsnB2jQQO4lh3og8+vG+DD6Db0KH4spoaqlMooHL3m5YwYiepKNzcJu5KN7XIhJk3gLGIRM7Ry/K83qjkbUURs0YS0WJdikB6GWI9RS34dRldGzALk9SgJhN7I4piYxWrGzvYLZiVMOOIeh23AVptpE0jgESY4rQkbc/wCwMo3ikEzInJ25eek4EzRJj/x4pu8z1lgdhl3LqWS+FM94+iLIPPrxvhFdZM7uhEbX6HZnTCLdNoqf5fYF7S/ivJ6khteKZ2tUTtVyjybwewijppy/Lpmo4Hd0wkS0pFMGmfK0pFpUiTRm7BCTmTUJMNYsga4yahdcY3dEo2Hlb/FlGNxvz0hh2sIXAkwvcY/yIPPrxvgMzixlctQ1C7vHlVlcKuFXD0ahp3r7IUva0HKlyBgsldiFQecjPYm8NWsMTu8cvyviCQYgsopdMNeVTm0hg9pliJHJ5roVruMQYg2MnqSu/jyArD9gSt6DK8srv48gKwukStICqBG5CopGU0jNkHn143wzq6udXP03OrnVz/SjC8jAY40PjYLupflj85flyL4MoPLPEfJ9/bXI2FiUceo0kTRig8+vG+H32MmZbqRbuRbuRd5JNoa2praGtoa2praGtoa2praGtoa2hp8Ka2hraGtoa2hraGtqaLDGI/YlGa+S69Q1eOUSCNB59eN8PxIflkBjxUI3jhQFAwFHiQHT0I7MIA23/wAz/wBzLmc7dx3ALnNHfpOdHf1x1uwv2DmIid3fKOWwZJdTIPPrxvh9qqqqqqqq9Mb0kN4DK6CwHhB327ubwGgkiBgOEA/x9MngJwliBtxEnlictWG+SSGRroKlJCQbiJHNGQlLE4aca041pxrTjWnGtONaca041pxrTjWnGtONaca041pxrTjWnGtONaca041pxrTjWnGtONaca041pxrTjRADCg8+vG+H2v8AZW2JrLEFibn9UPPrxvgHcpGZm+w/PS3PtxQFIhgjFaYI8MBKWIo8o4ykcMKDLTBFDGSlwzgtQbEIubhhGW2iW2iW2iW2iW2iW2iW2iW2iW2iW2iW2iR4RkQuD+8Hn0yy6a3LqU9VmGjk1y01prTRDRRCxnNGIB9EoyEf9k42pnGxA4sm59rDx6hk7AMmJMlqyKPFOuxiWGfVEWAZcVRPLI6DEmKjNpBxUVhKGPTCUiEdeZNiTvN7QbEyEteZC9R3JuW5IUJMQzTtGtaZlFK0rTR6ge8Hn04jlueqbxjtc5NOz6N7k2kF4wgUjRNbb3VPcwjUixheoIykW2lRgQPhpbXWKlQi5vDDSM4jBsKVJcQ1YcO1ZsppNMMNGpfiw0oAG4iywvzYp20cL8MXrxaj9GMWIak3uh59OI5bnqn8Y/OV2cPot2d5Hc2kJlrlV+7+7hHrDjB9UcpRrdSKSR5Hw0V5LFRdwNwKGVzjkmKRsKNZcQ9IcM9Jk7sLAz4iVS/FhYxMNGPKKPVkkjaKRqUh9OKUXrxaxD1m96CfU6cRy3PVP4qn4mHk0zMWMZMOYqw1HhXddgEsS+qzsYy4VPGbIIJCUcbRjipbn4UMjSBPGUgtBMzaU6NrgHDyitGdDVhhheM5o9QIRIAmg1H0p3UUTRNNJph77dlBPqdGI5bnqn8YfkmJrfxIcQ4IZgJXMjxEYqWYpMo5SjcMSBK4XRSgKlxN2YG4OGLF1rxLXiWvEteJa8S14lrxLXiWvEteJa8SPFiyM3MvoN2UE+pniOW56p/GNqnIRlH+I4EzCBEiAhTRm7UeriTPYV2lImAna17RAiTs7P8Agt2W5lyxHLc9U/jDXUPVs/DAbiNrxwldOSo4YyIMNL6ml/t4gnHETmTR4cmHDmGnh5yeOPF/eCMpHbBsiwiIXF88Ry3PVP4xXOcoWD+HEbRmOJJjGZhbVrC046ckzm+4F31GeUsQBM0v8Dz1gacXCWV5S+43d4waMMsRHfHniOW56p/GNrjn9IdDM7qw1pmtM/8AhYfm68Ry3PVP4s7snMnywvEzu0uJ7Dh/MeEfB+fvP2a5XK5XK5XK5XK76ZcXOrnVzq51c6udXOrnVz/QZ6PGbGGWIksjzkFyWmSP+NhMSRGwrWBawLWBSmJDmxOzahK8rYiYSbEx03MaecHRdy94uPZbj6JcfZjkKN2xbIsWiJzfpxvhB5z8dYRkaeE2dwJmiFiJsOC20aLDxsxdi94uPZbj6JcfhY3w9mL5Xa7EYh2kHD+Y8I+D8/eLj2W4+iXH4WN8PcZ3ZahrUNah/QLj2W4+iXH1nfqZ+rG+HtRjcZtacPyi3ZF4y/J7xcey3H0S4+s/MVLZco/M6W9WN8PajK2SR4yUXaQZQpqxopApL3k94uPZbj6JcfWdVVc6v143w9xmd30jWjItKRO1PfLj2W4+iXH1n6m6sb4ezAzWizERgOjB8g8I/GX5PeLj2W4+iXH1n5ALmMbcha4iiZm6sb4eyBuD6x36hWRlaTYoGbdAnxIOje4vefi11a6tdWurXVrq11a6tf6b91arVarVarVarVb7z8idrEV2QvQnOvXjfBOFGzbu5RmLNEbsMZk1hK16FGYsA3E2GqtotqjG0v8AgXbqZuh3ZlqAsW7EDM9S8bXVrq11Gz6hM4Na7xwV0afydgeWMmGH5Q8UXE3y/wDAumF3Ts7ZN3VhN0z/AB2q1Wq1Wq1Wox9PUL2u2JNlupFuTRPc/wDwL8xvQZHrlH5kVW6Jvj6z8I2ZzmAQf8R1XKPDSGmwgp8ICPCEyeouz1+8/U3RN8fWfhH5ztSP8R+FhirieiWIZWMXiNnr96SIRE4RZjCNg6pvj6z8ImZ5JhFg/Efg3o2D/tdOKjvjD7zyek5HNykZx6pvj6z8I7b5LWj/ABH4Pywf9rqpaf403x9Z+ETs0kxVD8S4WhLywf8Aa6nIWP8AGm+PrPwhekk51bqiieVbQ1tDWgWptDW0NFAQntDW0NSQFG20NbQ0eGIB+i/Ejd8H/a6XejVuf8ab4+s/CMrCkkE26sEp52cYJhdv/YeIdz1yA5e85SgJzYh7sTXSkkGNbmNTEx4b6L8O1zYT+104uWgh+PN8fWfh7GCU8DWwwiI/+w8P6mw7kcvzzwaigg01i/A4xkW2iUwsOG+i/ChcdZnr0TYlgXcy/Hl8LVRUVFRUVFI3o9iKUolu5Fu5FrlqbuRbuRFORFu5Fu5FJOUjbuRbuRHiDMfpWurXQFICbFSJ8UaOWU1a/wCVRli+wA73yeNzq51c6uf2QG4ziYZChGmgFXjpHpA02kDzFBa2gNVHGxMMYnKbR/dbmwUbMybmwUYs2VgoxZm+9jfBuzvK7t7kJtGbzMTHPeOtHUZBcNUCm1I2m1/4dcLhtpEbCIyDHIen90fJSpuVLnLxm70VzoYpSWnPYUUoq50z1+rjfD9e+0twyOZiWotwyOZiWotwyOZnZnqyd6KOMpSihCPolgGRSRlETPX6mN8P1y5634j8FR3KKNow6ZY2kClD+njfD9cuet+I/BYQazdeKGk308b4frlz1vxH4LB8deM+pjfD9cuet+I/BYN/V14x/X9DdQrdQrdQrEzRmP67izqwUEQO2jGtGNaMa0Y04DWwU3bKM9OVu7dLvRpD1JvoM9FcrlWq7ruu67ruu67ruu67ruu67ruu9fyo/HofnN+XupeavJXkryTEbpncRby+pV1V1V1V1V1V1V1V1V1V1V1V1V1V1Xv0Pwmarx4N3TYaJloRI8IDqWE4kL/eAmZrxV4q8VeKfnMuU7M6sVjpo03bIfL8JueguFAVcT0O1WxMGm4v+Vq/x/jf7boLg3WF/s9JCxDbbJ7VvoIXEkA3nYWQGUa3Mq3Mq3Mq3Mq3Mq3Mq3Mq3Mq3MqCQts0xVeY1r+p53pHIZPrnbiHuw6wvzSzaZTTaZDJdLFNeYG5SSSOJDN2ApSymMwZ5TGLXqsRKYSbmVbmVbmVbmVbmVbmVPiJHYBcyjgAMpMOJohcS+m3LcZlwXlhf7PVimpP7QFSOQr8onpJqzP7kbOWDjgZlZILHASaE9GEHEtudmI/rrCfMUJmTRm7jFICaEwKkgSmJ3tCRMLSu6nvISGQoHhLXxfzdeDH054we3025bxzc/wCAvLC/2eqcrcQT1L2YyCyQgtURMMjFEyflaR2+w0hi2rItWRasi1ZFqyLVkTmRMmdxfVkWrItWRasi1ZFqyLVkWrItWRasi1ZFqyJ3cn68G/8AHnjPi+m3LeOZcSN3wv8AZ6pyuxHWDSMMt2ooa2YjhR0aQXEHflCUYNJI8j9GhItCVaEq0JVoSrQlRgQKKuoTyM3TG0YR0Y3fs8cbyPtiWIBgyIYBdorY1GMbRWxRvINkkbC56UQHiGjYk8TOdsUjwSaZs7O2WJkvP6bctxmXFLmw39npnl0wHy6ziGpNa6jZrDZniUTMUowOn5TSsIylflHycQsCbiSSxFIYRtNVxxD0WNUAsUkcYX9ITWi075CbjlI5OyM3NxM9JXvYJFedXNRykCkqTpsRIzRueQSFGt2aOU5Pqj5dBcKNx1Wdn6JZhjYzKU2ansaJE5UqogNwkCSxRs7nTs/KGGrStTILrSi7JuJgck8UhBou04wyOKxqCjE0VeqKONwkMwhUAgRA1pmZG7c6YC2JM2ygjjIXcgjd3J4mEjYbHxBk5qOMLJjMYvsD5dNrqjoCkBNipFuzRzzEqE6ZqeyMxiie51c9tz2oScS1yzudOTvkJkCvLJuOnGoStcpTLrHESDmMhgpJHkyZ3Za5uGQzSAiK4kJEKOUpByHESN7dyuVyuVyuVyuVyuVyuVyqgf1fUqqsqqqqqqqqqsqqqqyqqqqqqpsaFN6C3oLegt6C3oLETjKqqqr0VVWVVVVZVZVVVVlVVVWVWVVVVZVVVVlXpw8FyoyeKVaUy0plpmy0mWky0mWky0mWky0mWky0mWky0mWky0mWkyaNmdQwvK4wxiniAlPBp++/Dq9NwnKji92RPRX5Or0Pdk5UQvc6J6K/O9D3ZOVEJXO3Obq9D3yd6Jiq6dXpuE5UcXuyJ6Jiq6dXpuG4yw8F3VjfD6ADYGTtVia0vdfguLXTeKJnuibI+BZ7srXQeCNnrGz1R8UfOjoPFGz1jZ7m5zdOz1j8VIgZ70XFHTeKJnuiyk4FnuTqjofFuFh4LuvG+Hvtzz0SvWT3Xyq6fKqrkyq+dXT5VVcmZ13VHVHXdd1TKqbnoqq51zrnVVyZVzqnTcD59eN8PoYabtliJrG/Abjpxv3A8+vFtWL6IzSCinkL8Ldmt2a3Zrdmt2a3ZqWV5fuRDdL7B4RnfZutm62brZutm62brZutm62brZutm62brZutm62brZutm62brZutm62brZutm62brZutm62brZutm62brZutm62brZutm62brZutm62brZutm62brZutm62brZutm62brZutm62brZutm62brZutm62brZutm62brZutm62brZutm62brZutm62brZutm62brZutm62brZutm62brZutm62brZutm62brZuooRi/6T//xAAnEQACAQMDAwUBAQEAAAAAAAAAAQIREhMDIDEQITAyQEFRYSJQcf/aAAgBAwEBPwEk6LpHT+yyJjiY4lkSUPrqoNji0QgmjGjGjGjGiMVHpjRjRjRjRjRjRjRjRjRjQ+SOmmjEjEjEjEjEjEjEjEjEjEjEjEhqzuhOuyfpGiDde/SMPscF01G1x0jz0lwafHsZckPT5dXg0tk/SPgUkxdZcmr1WovknOvZdKsqx1Ks0ip3r2HX5O53Ktir8Dr8iu+On9dFX4Ks/odT+irP6O46o/oqyrFcx1+TS2T9I+CEKd+kZ0HqfXScbh9trIj5FwaRA7/A6ncfJWRFkhMbqXdE6FSLG6lz6NsTZUuZXvUblTuRdCTNLZP0lWRlQymUymUlOu5uonQYuDSEivcbE2V71KsToN/HsHUjX4Jcmlsn6fYptFzIqpai1UqWKpSJjiOKKRFGJZHyyaIkuTS2T9PmWmqC00Y0TVH0UqF5f+GQvMjMjMhkZkZX8K/hX8K/hX8K/hX8K/hX8K/hX8K/hX8K/nTS2SVUWfyY5Dg0U7V8UeOupztSqfzAvi+SUPotUeS+JKNO6IxuKRQrWViO1CtY7RwTVV4NLfP0i48V5d9Fz3afJL1dx2/Bp1oS9XclbQh6TS4JP4RSiI3UJcoXeRDggS536b+N8/SU7V9knQ/mZZFckp/RWMuTGicvhEJWn8vuKiKROx2rUpEc0lReGE69nun6Rcezs70LUWlq7lnao4+wsl0ue2fpFxso/Pcy5lzLmXMufn0l89NVbKouRKSp0Toy4hJKJch71yWRLIlkSyJqRS48MeS1FqLUWo1F4IStL4kpXPrP0l3amxFEQinEtQ+d8edur4Y87dXyz9O+MKoxv7Hzvjzt1fDHnbq74RVCiKGoqdZ+ndX4IyaRfL6Hvjzt1fDHnbq74Pt11H36z9O1clyNOSSL4j53x5LkXIuRcjUafhXJfEviXxL4mpJPjfHjrq9Z8EY9u5RlGWFpaQimu5jiPn/BgnTrqVrufBT56qTRc/PGFxiMRi9hB9uurufAvT7PS42ai7V86Kld74Fx7PT42T49w+BP+diUbastj8FIFsRxj8FsCaS48Olxs1PT7h8bVKNtGXRKwLol0aURfAm0+PDpySLkXIuRKV3tZ+kjKiK7lSh/J2P5HT4Ow/MicVQ00mT9RKKp0SqY5D02OLXjn6feaaqxqoopcDgmNVHyQjRbJxo/FP0+80udsuRcbNXnxT495CVGKafXIh8i42avPjoiiKIoiiKIojU64jEYiWnTjz6boy5Fy6rjZqc+y1V89Fzt1FR+HsdjsdhJMtRYvstRJUFHtUsX2WL7HH7YtOpYOKOx2Ox/wWkSi4+OfHSPO3U52okLdF0Lol0S6JJ1YpKlGXIuRchaiRehyVO2zT9XSfp8c3RdFzt1OdkiPJLkjXo+OjVDGiyIoRY1SVCXVNCO1BOgyqPkbVOwqfJX5FqInOvbx6r6LkuRci5EppcbXQQxNdKoQ6FKlqEqE/UOnx1UkIcqoToSdWKXRyqhOhJ13ZImSJkiZImSJkiZIk2nwRg2Sg14IRT5McTHExxMcTHExxMcTHHY4JjgqdIRTMcTHExxMcTHExxMcTHExxJxSXSEPl9Z+n2Wlx5ZcdNLxavBpxrsnx4Y6lOSWp9exyRMkTJEk6vzaW2yJjiY4mOJjiY4mOJjiY4mOJjiY4mOJjiY4mOJjiY4mOJjiY4mOJjiY4mOJjiY4mOJjiY4mOJjiY4mOJjiY4mOJjiY4mOJjiY4mOJSnX//xAAiEQACAgIDAQEBAQEBAAAAAAAAARESAjEQICEwQEFRMlD/2gAIAQIBAT8BFvh5f4WZZlmWYsv95eSE5MsoLsuy7LsbnizLsuy7Lsuy7Lsuy7EPIuy7Ll2XZdl2XLsuy7Ls/wChqOmOyTJLiSeMVPD1wtme/wAK0Zb+uGzPpjs/o10Rhy8RY8QjziEZ8eCg84hDgUDjjzjwhHh4eHh4eHh4eHh4KDPpjs/o8p4gjhOOyGIZmZcI8FohDERxHMDXEcJD4jhQMRn0x2QNSUKFCgsY7JcvZmN8LmFwvwKBiM+mO/wwQhslkssSyzJZLJZZ/VDEZ9Md/Z5sebHmzFzw0VKlSpQqVKFfwZ9Fsn0siyJ+T3zhrt7kVaFl/pLeirE/4xuD1np6enp6LKN/DPvjs/vyqR/pC7Z6FrwUmWxa8FMj2Z7EbY4kQ9GRkLXfNd8dk/j9xLNix/0hoszFf1jUnqPSWenp6LGd/HLHtjs/v47eEkkssJ/gsuIXXHZ/ek/eEQQiCCPvnxh0ghiTnhkGSdhpi7ssyzLMszFz8Xolkslksw+GSkqxKOcdkez1kybsPJi13euuHxeuuH1x33yyhwXFru9dcPi9dcO+TJJMHzjvu8U2VQu711w+L11w75L3nFc476sgyTsPFi13eiGQyGQzH4sqyrKsqzFR3y5w5x2NkkliSTLJpl2LX/g5b5x7LpCKr7vKC5cv+DJcQYdkPf48+mL+7I+CP7+PLfTHf6Ef3pLklk5Eslk5GL+OfTHf6F1hyQyMiGQ5IyMVHxyRDIZDEo/Ljsa7+np6eiPRffF+mTMdCfvNkXE0/njv9mT4bks+EZOemLn5Y7/ZnrqtD6Ya+WO/2ZKR4xzR9sNfOSSSSSSTDm5cuLL75aIZD5fTDX4sOH1x18fT09PSSSxYTkb9LFiSxYk9PT3i4nPzW+Hrrh1Yh9miGQyGJQNEMhkMqVYk+mWuMd/PHfD64a6IYh9JLMsyzJ8FzD494RHEDIKMWMfPDmGQyGLHr7wh9pGzHQuY4SGhDXEDQlHarKsqyrKsqyrMVA8oFlPwycFmWZZlmWZZlmWfSzFk+MnBZlmWZZlmWZZlmWZi54yy5x3+LP6rfGfyw2ZOOmO/i8RYfhqyrKsWvtn1syzLMsyzLMsyzLMsyzLMsyzLMsyzLMsyzLMsyzLMsyzLMsyzLMsyzLMsyzLMsyzLMsyzLMs+n//EADQQAAEDAQQJBAICAgMBAQAAAAEAAhExEBIhMgMgIjBBUWFxoTNAUJFggRNSQnJigrEj0f/aAAgBAQAGPwK28to2zKqq6tVVV9qMfCr4VfCcRz+RuuruR3tFVA3XFEDUk4BUWwYUGttba69ba69dettVPv7r67hve2gQdbJWyFjC66lAr1oGpe4jci06hRsCFhsFptGoNc6htCFhsFptGoLG99w3umX5/S2J/aylCbZ1J1/1qO7ewpuqbyipZisotyrAWYhUsxWUW0WAsxCy25Ra3vuG9003eBTJEHihadV2uHDgpFtwfveDZCyj6WUfSd3+Sb33De6aZddiSmuEweayeVeiLCNWee42SsWhcu2pCizZErGJsPRCeNgUXrH91fjBXsO1kNC2goNpfysvSA1bD2ushqq1Q6tl6FOGoS1Q4RZARaOFVJxFjT/ZTh2s2RKgiOq2hFgMKTFmyEGkRKLeVofzsvOcGjqpa4OjlY3vuG90BeMEEphmtgtvNtl2A3wwlYaHH/ZE2Xbl5qm6WnjNhkSIUfxnAYY2fpXbjPtNBT+60bgaDEJ73HhSx7ZiVdftNK2TOCaTSUbrWx2TpgGaWNaNJcc3yrzyyR/VE80b2EiJTgH3i5aPGXRjZ/LeMxlT3h83hTUcJxlQ8Xx1WxgEHck+NJF/mv42uvYzZo70y1F5dAslqBvlvNpKxM2XgSWngtJJxdwsLZgyg3SYjnyTiEC6iyN+k2kzQWNu6QAgQWlXjdvf8bG99w3umj+SJoIQl4ceiGA1cRKwaNWgR3IPJX/5DziETzsaP5LsJgDrxHGw3jEhYP8A8LtLB2WQtHRC7RP7rIUbwIws2QSsh+lFmQ/SLnSDZIaUAWkBEWF3K0DmiNw7oJ1ItvdbQ3nrm+Yd/wCKDY28KpwaKWN77hvdAXW4dFQDssx+1jjbULMPtZh9rMPvUzn7WO5E0lAbJLj4RiljXGNmvVMdhJrFhpMYSpuMvRibP0hOluuFU0msJ/dNDCRgjfMiLHAVKzKQgeRRunBFrjJmxrW4EIX3YImy71m0O3J6jULudt3rNs60haUk4lAHhYGaSnA8k5uj41Nje+4b31KqpVTq1KqVU+yiYWRxNMbApuibH903GMU7CMbWWu/1pz1P1Xn8BLXbPVQ0yLMDtLE7fKxvfcN7/AQDhZwXBcF1cVVqzBVaqtWZqq1VaswVWqrVVqxc1VaqtVWqrVVqzNRMjD3OEnstutjtu41XXPBxwFje+4b3+Fb3QDv6p7HYtBwRdxBTtJpZJlX+KuxhVX+Mr+Sf8vCb/rbj/iME680uw4LRudwlG9UMKunK3jzWV0c1iIUn+vuZBI/axxsulod3WQA87G99w3v8K0nmrxerodA6KRpCs9eCxeVF+e6uh6uSgf5DIEKL891mQcHwQi69iVBcnG9mEK7ewWZRfhFt6MIXreF63het4XreF63het4XreF63het4XreF63het4XreF63het4XreF63het4XreF63het4XreF63het4XreF63het4XreFhpJPKLG99w3v7zCtnWza+Xb33De/wAbNAss91lH0sNlY052Q1bW0so+llCluIUXcbIaFtn6WXysvlZfKy+Vl8rL5WXysvlZfKy+Vl8rYP2ocN+3vrDBZVFLaqqrZBWA48/ZBxGBs62dbMd5jQKTQLZ2Qs5UaT7XMFXRTmoCjR/azlY4hSFeFDZ14qWiSvSKDSxE8gsNHK9IoEohrJW3o4UiiirlJ0eCwquvDft76w3AW1RbMSOPP2Qa8m6E0S7aCIkwFL5rEDfzzKDVshZfKhyuGhs/jH7UNqjfaJUuCjmnJts8eC/kfmKd2RvGMVmsejNjibCBY7fN76w3AVQO6q0ungPZc0HcqIxhKJw5qd92Qcjd4rgpcrxyiy+P2rwRLolQ5TyTkLJKvuyix3ZG8JxWQWOEwhexasKJwNhcKWO38HNqjcD4bGhUFYbQWU/S28AuQCkZeSkYgqdH9LKVSO6gK6KCyePFQCoGkheoiOYWy+F6vlCapxJGKjirrirwMOUHSYLBTx4ewwUHNqDcBUlRcc3v8LDsQsHBVCrPZchyswWOyVULFwUMw62y1bQhZ1nWdZ1nWdZ1nWdZ1nWwJUu9jgoOa0bgKk9FlhoPwskYLZEraBCkNKiMVEYq7dMrIVMYK9GC2WkqD8Fgq2DcBbNYUPmJ4/CAc09kUGC0kVRGlMk0WjumFoXGshM/SJaYWjg1UmkrSDqtGGGEw8T76Gractl32ocMdQbgLZqhL5PL4S8RKk4jktILuZfxuHYprXMmEOEUQc7R7QRe9szwUHR0R0cL+MjHmg3SMvQpp72FAt6jUG4CAx/SiXnvq4LKfpZHfSyH6/BW99wNwFgYWLibNJjGFVo4xf8A+oXcpOPdfrUd3/BJV4W9TqYWS5YLHUw1DBqhjSiuzgsVxXFVKJ/BZasWlbLftS46ze6PZDcbIQBGJ6qSOMKCuK4riiPw5vfdN7oweNUHNNMF+tR3f8Ob33uCzu+1nd9rO77/AA9vfdhvNEcihqH8DxAQgCwI4DXb33YJ4Ilt6TzQlZgs4WcI/hze+9wWVZSsp/D2991pHRJaFonXRiDKe9tDEap/A6wqzZCzeNdvfdbKvTiFc4KSqOVHKjkT+BxbO4b3snVktKm6VIbKOFKoGK0UlsBQsyz+Fn8KPwzFZghdxxVLKKiom4cVpi+hotHsF2z/AGhYNna5rTNBkkLQtdUJznE1wQ1D+B4BYi2m9OvIXBcFwU/ggsCO9KAM/pQJ+Ix2R1WLiVVy2TKxr8iUNq71QxcepPw7Bq415qD7+cT14J0Ts80CJx35W1RbIH38OzWni335aGgTVY/Su3IimO/K2qICWk9Ph2a7hyPx5QlQXXzP9Yj4Vw4opmvpQefx5Qr+kG7cjnrmOCqFUK5ImFUKoTWyNpVCqFJIVQqhFxIw9ozWlE8/jypiUIbBHXXeoY4zKa2dpf8AVXNEJKu6UfsLRINJxV3R1TJrKF7iqokU9nH0ma1wVNfkDuXrYbjKa4t2l/1V/Rm6Ve0rp7LRKRmUnMm/7LaErL5RAp7Rr3YELDUhuLlJ+QO5N2MVRqo1X8JVGqjU12GyqNVGqDCo1Uai0x7XZKxaFkH2v/z4ugQjDFNxNUVUqpVSqnchvNNAODk+6TLeaa28bxEq9xvQrhJQ0YJ6p/SIVy8b8TY5zjDWq6w4dVsEnv7/AAtwtw9+3upXDe3j+k2RBaeCe0z0TXQ680QrukBrOCvuB6QhpBe6os48EXwb5CN6Z4JzXDB3JAsBjqti9+/eiwWjc5ftXdhZfr27e/zFFlKoVRZSqFUWUqim2AsK89TrzWPtW9/wAoWQFA1oUe0b3/ARYTy3DTz9o3v+Aix/fcM7+0b3/ARY9u4YPY51nWdANdOPzNFiFlWVZVlVFS29ryp9rVVVVVVVVVVVVVVVVVVQx+QOrg4rMftZj9rMftZj9rBzlF4kofBjXgKXmOiyz3WQLZwWNOfxdbMSsPhRrs5Tq4qW5fi7kfDjWhM76xaeKLTw3d7rCg2BvNZTZslZvCzeFm8LN4Wbws3hZvCzeFm8L+Q4lMvtwfROLWi61D+t2U8ijYQm7B6ouuiAp52gATzTeIKc3gAiI7J7f6oMaJcU++MWoEtF02SACFfIC0cf5VUNKzeFm8LN4Wbws3hZvCi94V0KkmzDAqDX3RTO+vPMbuCy8JRP8cGcTYDEqpx3kCqaXTIT2Bsh3GVowMRQp4jEof8Axj/leRwxmkqkW6QzE8Oa0d9tBBWkgThATCDMJ7gyQeqZpQ3EVC0hdgXLRgtgNrjZdayZ4yrlyCOqa4DZqv1uC79agd+vcliKZ312Hoid1DiRtSnXSZcZsBKZtHZM0RsvASOm5gOIWcrOVnKzlZnLOVBcTZIMLOVnKzlZys5WcrOVnKzlZys5WcqSZ3BHXU/fup5pnfXPTDcAna6CEb4g2Etu3p4rZuXeljb1E1ktM5jbO0XfSx1cqyrKsqyrKtoQhdMHmoaZ6k6zSYvO5q67RDH/ACbYYjBZmfaYOllwzP8AZaSYOGBsv6QE4wmtIvXuKLVDzAQm90RuzM42aMAVGKOja2COK6cVItwoPdR9JnfW68Nzna3ookHtYXXL5mivXLhn7saDRMlprijY0QKeU0zLoxsyX1OQ8ibAhhJNEXOaPtNgVCDnM2TxmxigrOHdNa65ocOqjRaOD0sMccLG3hECySnNiW2XeCBGJCN6tnMcii8iAbIveE66JmzZKo1bR9qNdrncOKw1OvJSdyL7gJWziLL2jmZV7SE2AAwVe/nddtG0Bx/SbtS2MLHFpiEdqXDEiwJpbVqfMS4q8KJrHRdBsYsSR2U6J8+NaYvu5SsG3MbNswoGiAHNbdk6Ng0n7QbQEWScXcpT40dyKKSgHGAhc0QI/tKINAcLJaL7u6bAuTX3I16LZWLQV6flct3X7UwB2su8Kq7wskKjfq2qE8LNkwjjWtg1mKYB7rF2vWe9uy5C9ZgYRaTItwci7nZsmEA62s9/cj4bK5ZXLK5ZXLK5ZXJsA4e/vPoqLBjvpZHfSyO+lttI/XseTVg0LFoV5uLfeTup3sb6dS8+ms3v7ENtgojl7ChQsojaMLaG2mpS2mpTWOFoQtohabRhbRC28+mu3v7Vx6+zpuqW0VFRUVFSynux33De/sbjv1bdGb4EazPeN77ieR9lg5ZvgqBUCoFQKgVAhMYe8aOu52TCzrOs6zrOs6zrOs6zrOs6zrOs6zrOs6zrOs6zrOs6zrOs6zrOs6zrOs6zrOs6zrOs6zrOs6zrOs6zrOs6zrOs6zrOs6zrOs6zrOs6zrOs6zrOs6zrOs6zrOs6zrOs6zrOs6zrOs6zrOs6z+FhXn+Sf//EACsQAAIBAgUDAwUBAQEAAAAAAAABESExEEFRYZEgcaEwQPFQgbHB8GDh0f/aAAgBAQABPyHFb7nktyUNeKl0iBgZdGoOydk7JAQLSPSNwRIkSJEiRIkSIupvRDdjdhuFGzREiRIkSJEiRIkSJEiRIkSJETnCUiVqStUQ1IakrVENSGpK1RK1IakrUlaohqQ1JWqIakNSVqiVqQ1JWpK1RDUhqStUQWZFT9r19RnFNa1K6o39F2FFfmJkULXoTT/nYkqu+7EEsbR2HNcJhXk0I/AyqMgmGjM0wzjKUng8VI/AVhjROGLmaYZ9lETrg0KSPwKpTcZKhslUdsL5sSNpK7FH4D3GNcZpolQmsICOqFMVGd6HupGGaaFJCawaCOqKlIxwcNoyrWGyFJwmsGgjqipSWiidtevpokK0NeKG9MZIkugu4g6GKaqaH009rKG8ZttdiUKFimL/AMcK9gxl/uXe+F4tdCVgzyDzuijPGw8Idi7j/nPIH1FXFjsfh6JkhnnFzv0QZ42HjDsXS3Ba7nnDLeiXhPRRqtK4fkKjU3WY+IEaSNOt8GTG7Ic1vtim2TThoi81n1sk27dDRLgmSyI6DcncjoOWWCaSsQ0wULIjoNzhANHlgmkrEdBihOYI6Dc5YQENMGSyI6DFE1I6Dc5Y1xGZH3QoWVdlgtCSP+QcZHcjS4KFY7YRG53QkllX2wUZJI/5BxkowjR4KcjssEo3O5GhwMUTUj/kHEUUYXhPRStxqs98i9VT8jx1iPEPS1uVOttwMJj5TxRVzgVCX8i5BL+Q3NyBOLEv5EGxHTFSkShWcl/Ibm5AnFiX8iMJfyHW5BMDckCpYl/LGX8h1vjCZC0RC0XBDQhaFNFwQtCGhTRcELRENCFoimi4IaELQpouCFoQ0KaLghaIhoQtEU0XBDQhaFNFwQtMPCeiksakanQWFCbNMEAsiEVcZYb4Iahx0SD5/HoTCAhVT2YjhQvQctLtwOe104wuaI1PsJzGD6WSWLWSyVh4A50s9hOVKPOnPRPlilyqsKwEXH1icyUSbiaYykUNEYTZqTHNVTRYJipZSpN3H1UJgmWHkrju7aLpOq6ICqOIZJg2+DlXmQiazsKVAzNYNpEWQNVGyaq4OGqAXmlEAqMGgvK6iV4dsJR0FmyXMaEMaVeKUShojBLYVgg6/dg8J6KPaSWxZUIJxwd8q4fm4z83NDZoah4M0h/lEkkkqJer98W1FSWLopXJuUS24wj2Hl/0dVS2YFyV0GkLqT9kWuFoV7t2heYSPOkTFQQUHJaNWDFSpRj0qXSeRLUJCqFWQSSNDeVhClEQmCqpC9ghLs5r/Yyvk2T4g7YFX2JEZDSoIYJGY8A0zbks1ehVGxtKalC3KHd2j0WMUZiQKzlkZWKuR4Pydqh27iNxuWZOT/pIVbA+xUn3MaEeglyyCuPS/wDWC1JpmozMgVymuwpoTTd0asOaDkoJVvmnIwn2UgWKJuSFmv8AbDwnooyqK8r3yOFUrwojYEshEnCULos93IaSg9l0qL9QqS0oVPx6NN5lIkuoas3ITg1W8pUXGahieBFMBqmJEU2xugs9MYyA9EtltNQpJ50T1Kh7EGWpTGE5RNFgJMFt0mok2SSlvATdOQcJNYSI080h+KXcGxDjBNSTddnitum00UKkTDifQTE5qSxVxLFteuWMW9aah3xU8nsEhleOp2x0pfsPi4awWU1JldRI2buToq4eE9FE2ZlbqJat9MEBkJs21eLW4an36hCE7PATGlm3q/Rg0ZJBl95pCJec4wdouTXNsiICKcPDBZoMjPIkSjkNWt2wlGL2EJBolWXGVR50dUAImouxRy2QtnhUJQhrI3vCKp4iKkp5DGA1ZFCoNdTaKYJo3Il6kgDW6gUus23gqzrQeLUFYHdxb0IyxKixThyUkjFnVaB4xsZ26nKUm1aR09IRDm8jzweyFyBnmM6+2HhPURKUJl9z5Y+WG5q+j5Y+WPlvZKnrvY2PUGXfDwByhuqMPOiSq4ldBpYthjTmy2502xoZdJn0GReET/J9ATQWb5pDQ4tIzeE8oEyao0IanbJksPCfSEb3ZKGsEhJRTsbHE2OItAD5Ib3L+62fJHyRTihpJ8kfJCW6Jfdnyx88fPFDsFLPkj5Y+SPkj5Yaro+40MKT7mDbqVnQOzNIz4IojLV6s5i0YeE+mp4YR1KCpnmYtutSNVoE7DsKqjgUCSrNmNSKlknJH7NA/o745dkqd8xXgiEQFXeXu0gkvm0SFDoP8CHurJkRF8iPX8jdl5vPHuY8HRBjLNtXhKojchafZF8PCfQ0aIiNEiJCJIiafQp4hKonRTiKSQX+m6T7XRzArLklckwxhRKIhTA/I/3GNFEybDGsVHARUFJBT/cZseGKI7B1WgkWsjMs3zOY3X+RclPK1Njwyxs70dhJVR5DobfmbfmbfmbfmbfmbfmbfmbfmbfmbfmbfmbfmbfmbfmbfmbfmbfmbfmbfmbfmbfmbfmbfmbfmbfmbfmbfmbfmOzX2nDwn0NGUyna8EkmKNcFZWc/V7wnooiqCRCj3Nz2VXHf1Elja1EhrMlsNaJyJhATu9DWTwJdjJKq7UFTf+dF0sQn9sF2YxJS1vQfwY/ix/Fj+LH8WP4sfxY/ix/Fj+LH8GGlLU9A+xGvX8J1OZFKRMdnJEsqHJXpIVWQEBAQ5kWbVSUxNQmqfZQ8rAy1FJfZhLJpUaYLKU/t6l93TG+gDRr9gSnPlFnBK0DURwkIrc12IXlwkTHA9w0l/ZcDOraZyzWghCY8TEpcK4tSz3FxusfBMoANuIITzGKJibSfBMYgQ2qrQsgtCcp04FJ8sMUimyGp4Jk9oS6FxZbhqHD9bwnUoooUIWiIWiIWiIWiIWiIWiFX3BUFFMne0ipCspQf3eymJZCG+jENOgtqbzeswS1hGmsjRMq/chRBESj1ND3k0pJqtF6n8EIGw4m5Ht0tnhnvd+hdVLEOqriYYhQk9x+npOzlJX2VcU6xYNrWsyeT/ApJz0CY4/F4f07iKGUuyFaWc24M8olrDKJNtfvCPLOvreE6zY6/IHhH3CSiG5UcUL2TwOFDJlGs2EqITz1ZbQkwHl0NWeozY1361I1DllmoLSdx/dCLFKUUKI/seEcOjCHDK1HlIjYjQQnNEOXkrZ3MoKvzpg8uhIe0aaw8n+BkpYR4CWzQrQqueUtNFIN+pSwzMRt/rBcbKnrJw5VxSW189RsdfkCTdlJKJhx9EprZbG+umN6NxCc4RnafbZiVLCRC29NxT4B0uxqGEPjGuXqObb1FJfqdxNsmroSkssFNZVrJEkmibFMp82NR3YhFCU2bP4MIgaUVWMqFoEZe5MjwcWgRQVnqNeN9xFam7sS7MsG2227v12bJtDQpLa+ek2OvyC1DTTULsXSG1wUfRU//ALaEfAdBpvzCHP0D2H2WEyemaeYrq2GK0d9z9kh6V05YyehiCHPqqo2nBtDaG0NobQ2htDaG0NpwIGmNq6Ik1L9izZNoaFJbXz0Gx1+QUh226oIQ8mfRUF1NmSMsNDyKITGSew1TstAku6bInsHKD4kYVdpmJrI0bsTygIENPR/QmbJtDRseMTY6/IPvpHA9FuJ+iIPzQPk6SJxcRkU5CGloPBjU/BqNwMZoaF+B/NTSu4waKzRWpdqEGBGQqayyvvoid3oRKs7Ip52gZ4idJsdfkCoqMk1UbKmPV9EUaBYdXtoUBotrYarZbWYfdl2O6EtpZFcC05EUURZKsrYQrg3Ml2FlRpCFyTAoKiXvUaEu6Cx9564rc4z10mx1+QUQfzFhvm5L79LCEb7YW+cEAmocP/CRq9J3p0Gx1+QMZY2qFMKt3hKgjZmRaSqrSCxkUhwF0JRi+U9dqh2nadp2nadp2nadoqr2TRQbhuG4bhuG4bhuG4K3rsQl05ELMvtih1cpdDxQFNZFJQToNWq3EiKZI3Hwbj4Nx8C0r56FZAqGVXvWNhUXDloe3bECCKeB/JC6n3EMklm/Xu+lY95qy9hKzusmR6R7VFxWnUPsx9aOlJqPK9CRqRuIaKxQPcRLkHOzA9VqHc2ORII5CpJZP17vpWPeasvoaPD2ItBL9hORTtl+y6LODaDznr3fSse81ZfRkYSzT2PkB8oJP/QNy5d/Xu+lY95qy9WChL1JepL1JepL1NT2KIfOJQQnmI/J/AloyFoUtT2Hu+lY95qy9aWRsVzRCYDssETkUlkXTJeyRFrNkOq7TZA6YaEIqnznyI1BcoyYTlevd9Kx7zVl6t4mShOg2d8E2nKN4VX7NI0ks3WBRExmnRr17vpWPeasvVhFShQoUKEfYIg6lAkfRDiIoxRIq7ZWpY7C0vC4eT6930rHvNWXrS3N8Qt1HBhGSiRjal7Ekua91qNiRWFSiKmVbmBVcjYUF4EfHIVUBKSz9dZgjYNg2DYNg2DYNg2BWXskhB3ned53ned53ned4retfcRSYR2ghNa+giqxtQuhGhKrdiBItRMRydiRJBMv/iGtijmJXgg5xI3/AIktAbpTASc5j/BSdWd0IZZJbnzYhWWwQlRU6RujdG6Fq638joIt27jg1AqqAuaVOKCDsFhOBVJK00NAUpoz8n8FjB1M/B/H+CesFzH2L6LvgjaEpY0JbpCcPoWX7ncd53ned53neQOnLCX0tTeQihLibHEbVVcRrXu/8HLfXMrWDQxkKl26b3f0PHEoun95UzerdPorQmyWpLEEgL+KoN2V9xFK9tmUdGkyZA98ufUk9F7v6HjlZZlG28z9Fv4ISWn9dMJXZoGy8vJA98hopoyyL+sKpRlQ7OJghaELTpvd/Q8cXlC67gUoDbUxOPot8oiuzyX+OqdVZ32LH75MSdZju2cbqCOiZiVOu939Dxx0SmSalqYLmnRrlv8ARb40ttQ8l/jrfaZ9Hvd/Q8cen4TAiQpu+iiZVXah57PJf460uS3RT6Pe7+h45Moa61CqKyFVd+urKW7G772E43bQSWY3aywlxTG7cQLR7K+QTyaPJf46kOayqKb5p+j3u/oeOVXYaiYJgaCaqdf6v2RdFqig1rOOYrggIazsKOaBkynKclQI8CCV5Vf6GZyxDKKqRkob7guDl+/ZXzd4pQ9X+OqsX6BY/o97v6Hj+j+r9i83zqhkQBVqK4dymMiDJtAqSVaopLa+RSX38HhCKtLVP5sIXhFTn2V/BB5IvqISWldCt/8AkFQyW7sSSUL6Osx3O7rA4P0aINuPgD4Ay+hFqHwB8ANop2UPgD4ARE0uaI+APgBJEXovZNSoOyzZXJk5tIrc/cyaBRm0lowmOtBJJQvpDSd1J8YfjYPqdhmUx0Plj5Y+WG2/J6MFZoHjHnC+omBJAYSlCtnmUO5fENGoHkyQtvzEyuSDkUwcQuIuITc1LaWFIns4e9WVT1NoeoVIbRE4NoUutDiYce5RmhLqo7Jqr1YANtLkXLRopAukLc/9l40BoNmo5kVMRAJSczRwQbidVW0jgNMbFlULBsZ/eIdURh5mPCmU+9eRhcLffCwK+Fjv0QDaRW1FfYNlOHdlbc19xtIWm/8AjUgiWcYZARSEiacsMgIpENWGXVUClJnhAORr0EtE63Qjqo0iA/Y9SPv/AJRKWM8zG3CFK9m9X1OT3yZJbUacP/KJX+2KlnL6Ee/5Slf7YpanoFq38o/8alJJJJJJJf7YvvyvoctfsdnwzZ8M2fDFu22fWGEtYCY+Vn9Gz+jZ/Rs/o2IMtWARJCthC5Jr2GSGnKfUhjWRsOaexhRB2naOZZEHBwcHBwcHBwcHBwcHfeSm46pWpK1JWpK1JWpK1JWvv/zdPndF8dqI1uQdC97zZJhvcZGYXr4PM9rvG8bxvG8bxvG8bxvG8bxvFa4mc2vS8NgxCJbyEC7IufuQNh3c35Q0pnQMl++gbZveDe8G94N7wVM9+hIwXUb5IbPk/wCCQWFjfPBJTb2skkkkkkk9WZ5XTdwjK6RDEkp5GpTwS0f0ps9rEz9CnozF5izoukS3dZWmUJXg0enPJgGK8sIwcD4XBo3E3sfwQ/gh/BD+CH8EP4IfwQ/gh/BCUoIvEK4TGpY6HLqyNRQ1XMUSpoZbyRagTSoT03Ph1KTtB4W+zHwgidiGqRmC0EBpjXsFEvqhpVQKtamxDSL6WY8Ud6qwgXKrLLtaIqKwXxsG+KomyP4IfwQ/gh/BD+CH8EGRqHR0CQmrFtd2yFEZCptFroYlwns8yyJd0XR54PQKFTU9OekuvMjbqGDlzMnZCgRlluOZc39N4XLTHJWUVZuiK9cpkDEKBSirdUordIk2WIdTwVGWXYaPGU0ws9mMzkldAtKOqkIqJMmRMmqKELJTtKHJCqJRDCtVNjOIVmwVmMTQgnagJUVFriSrZ5l3s9BWrb6C4d7vZ5lvpEqE5Z579AkuKw5Hmb9JSWFDCG1sXJWwsPJipPOA8u1eEySTuGocP0IgjRM+ZPmT5k+RPlj5kjiNG8Jwm1R8yfMnzJ8yfMnzJ8yfMnzJ8yfMnzJOE2r9CbOLoNCLX2bMt9JdIFyJ6BU5b0Cpwiik5Y7MRoLCJ6lDtKGSJLNV4O4zaikNPORGhCUWwUN0hwFFolChdM6v5N7yb3k3vJveTe8kPfWFdC9YNaD5qeF1JZdEp2iVJFYyRJFoLR0hNcKQIlN7WbEpaWpH9VuJaqYPDrgECRVF1bFkRlZMV5DmPNK1LJmwVMsIxyW2QmsoOJFXd9AhMlPPB0uLjebe/sJJJJqW+kuj3v8AIVpbv1VPeeiDTu9Cy0SqexTW9wW3ENm5bGQwLDlnU1FN9osKWuCqMiyLahKOzBGF9Xsh4eclRzh4xFRScILMmnTUa9JvZoocPiGD936ENMqGNos5Y69T4Y7LIMJqu7h3qWmplgsbIW+CNDKUCqDMzi2CS063IpKWidR3CQzqsKKJKizgiJSqKgSdUWG0rYPrC0yPhDTHRW9pmeQJR0XcLTm/3CWWTXRVznIheA8loLX0EzPbZuxVi71HgwOhhCeRIyicJN4SOh3WRVBEcNuZ+xcjCXNxqj8iBHNERgskwVjMSnUqg/eHjEu1NKnMUTwDSmxaOadN4ICsql3h+79DotVreNyR93Usqma8BEc+mEsi41qJlWJIbdPJNWlrYsTYUyTVhZa2VGeGck0htKaFFZHlst3N0kiZYHqDP6iEYQysVU7TN1IJW9OSSSSSSSerM8jpalQbM/c/sxvU1tIr+cgeQNEomw2Jaq82xaejFxNLKopra2YfcgSGzHOCleRTigXVzhRSlRQhCjUSFg4bkMbm7q5sPG6v3fo4sEkoLI0VF1WsaTaVDctvC8C2G7QlKKYMZY2w0jM1WN8I0dRzyJ0YNZb2EcDh3jBNpynDEMOH0jszsOw7DsOw7DsOw7DsOw7DsO0k73tYneIkSO5HciR3O8RIneIkSO5HciIovwH9iP7Ef2I/sR/YiiJVcjuR3FJ9ETvEdyJ3jvESO53iO5E7x3iJHc7xEjud4juJyuijVtWptOCX+Xx/9WxOksbxvG8bxvG8bxvG8bxvG8bxvCQ07YTh0LsQx3TqKo4Q1P8AgevcHhSR3K1eo7FEqTHemFzUUmlWpbBHcbusJsOSmS8IEkNyIGQ3HwE3MoEvqDROJY8ZnDPu5FI3g8KSOrLD1HYojbKytsLuSEUupbBHVle50VGratfbotBksUORKdDfVHrXC52PhCntDsPM03AxVJrBW6FNS6F9BjPhBGkTwcpZ0FHlNUwVt4UinVXAxjndXArVajBxITYpUyp1C8lxWmlRXBG6FIpImMudjecHiDsONRiNVKMEbSFmXkuMtN5x0ao1bVr7dGhHoJpE1Z9CFlm3rWMVHY2Bm8sJBtpgzVkbA6ivY2Bm7rBNkG2mCOfg7/A25+BTX8Hf4Gnz8DZXTQm4oJadJmT0HLLBOFRE9MFR2J6Dc5YS0HswaFRE9Bio7E9BpywllL0e5RbV0NXa4ra2W8fQfG6v3fr3nhPQehNR+yWwyN6iaHBbU+hJCjq7u7ujKbPeOQegaTUNSmSjtmpNhwbDg2HBsODYcGw4NhwbDg2HBsODYcGw4NhwbDg2HBsODYcGw4NhwbDg2HBsODYcGw4NhwbDg2HBsODYcGw4NhwbDg2HBsODYcGw4NhwbDg2HBsODYcGw4NhwbDg2HBsODYcGw4NhwbDg2HBsODYcGw4NhwbDg2HBsODYcGw4NhwbDg2HBsODYcGw4NhwbDg2HBsODYcGw4NhwbDg2HBsODYcGw4NhwbDg2HBsODYcGw4NgEGZrt/pP/2gAMAwEAAgADAAAAEANIhc8cUywQii8u8++9zOs/8+/+89/6MqUzO1IWRP0KWcrwAAFyngN7yUAlwOUgFAJKAFADLFNCKPBK02CINAPKEBBHCHfwAAF0VwvPAAAgkbELkgHhc2C8Sdhx+QewpwoI1UiK60Gh4K/wAAF2XwEooASQgggvE4tla/A+C8V1kAegkcoAKwgF4YxPUTPwAAF8Mf2cX+4gggks0AbRdKKtMSVa0gggggkgogogoggqQ4/wAAFwggggggggggggggggcOWYPkDWtInQggggggggggglUy/wAAFwggggggggggggjgggQkI8ocgIIYAM88888888888884fwAAPFwhTwggggggggrghgAggghTKxo0yTTjQzCFayggggggvwAECAAB9QggggggghcCo4ggggkExHiks1Q6AVotWYggggggtAAAKAAF1wggggggggggggggggkQIy4T/k3sgs09SAgggggggtAAKAAF/QggggggggggggggggguMVspcgggggggggggggggjgswKAAF8wgiASgggggggggggggA0w0w8wgggggggggggggtgCAgLRgEsgvk1aQggggghDDDDHgggggggghzTTTXQggggggpvqQgF8Qgggf1pawgggggl/PPPKwgggggggl/PPPPwgggggggggggFwggggidWawgggggl/PPPKwgggggggl/PPPPwgggggjiQ4wgFwggggoAAKQgggggl/PPPKwgggggggl/PPPPwggggglT3aAgFwggghELQqgggggglvfffbQgggggggkvPPPOwgggggvwqYQgE+DSGies8IggggggggggggggggggggggggggggggggvcdQAgPMMMqMsssIggggggggggggggiQQQQgggggggggggggoAsSggPAAAqggggggggggggggggggrFPLAQgggggggggggggl+sQggPAAAuwgggggggggggggggggtlPPHwgggggggggggggggggggPAAApwggs7sm6eCggggggggvHPPKQgggggggggggggggggggNDDDggggm8Qw44AggggggggueNNuQgggggggggggggggggggH2MYQgggrTxtCcaQgggggggggggghffXbghSxCAgggggggggFwggggggggggggggggggggggggggh8sY+ocPPLSQggggggggFwgggggggggggggggggggggggggglwAAAAtvPPAwggggggggNwggggggggggggggggggggggggggkfPPJydvPPIwgggggggvOPv/8A/wD/AK6whN/+4wggggggggggggggsMCQrFOJCAgggggggvPPPPLNPLIggDPPLKgggghihWs8889/eNa8s89PMM8885UDAvPPPPPKNKBwgnPPPCggggk6xwhQgglDzNCFjr73fqggghwGw/PPPPPLEJGwgOPPOCAggkQ4HolxCByRtwggnObT44mAxyVUAvPMMMPJPPMAheEPBgAggqAIPSnwQFq2UyggmcYl6CQTQwAgjtKQQQQQQQKZgQggggggi7SSXZ6bWcABA0AhaUYWRuR4UXghcQFwgggggglgYAQggggguTIJJMWIJBDHBIAkVENEGJANEGRoAAOwgggggggtPQggggggkskoskskomMcWIggskososkosotwAAILDTTTTTTTTTTTTTTTTTTTTTTTTTTTTTTTTTTTTTTTTVdwAP/EACkRAQACAQMEAgICAwEBAAAAAAEAETEgIWEQMEFRofBA4XGRsdHxgVD/2gAIAQMBAT8QiKkVd2MNnacE4OhwS+qxEaeh1zOyxOn/AMJ0Xb7X/wD+aQQArOWcs5JyzknLOWck5ZyTlnLMkhmzRklO9x9OgQuHG20RGmUloqtsAkegFj+F5Zg7uGYOjJAbq+7TaBipL6sXU8Og03HECICmIobsPAxW3mzmLdgHDLuimBJZdRo0z2pa1BMBGUVGIze+ie0PkYKwsRaWFvcFdmNC24LwsTU3Lpe8ocy3zFsDCdowdGSA3ff8xHu6KKd4yUOmy3gsmgzL1vMulzf4nlFb9/1LC/WZtFwalRN1zLruIOxEobURaqvcsWxdXX/eoWlMU2q5YmwPqCjZHAMJsRTR6gCS0AehiRZtVVMHRkixSxXbvKepb1LepT1NrW2kaZSqpYxFbcv9/qZMYbWWEHn/AHGdlxKGziKYNV3m4mEbJuoNdL2rQNdL2rotwabOo1CTf/sVoS7pg6Mn4ApiYRnPAFpbcFTbPM8J8zYFfMG8effQHvXzOKIyR7oi6uIHeIdmJg6MneaFnlw88Go6MKq5fNE/glvRP4EC2CcBFLdE4iWeJT6ZT6ZT6ZT6ZT6ZT6ZT6ZT6ZT6ZT6ZT6ZT6ZT6ZT6Yo4Jg6GUIK5W84IFaQb2QFxMMIatFRKDfdhsxHN8IDvOXbJAHjl7iOzr4lJQxxLfHxNhZniYQfERar47MHB15JS/ZGoU2MRoU4Dhiq26ul/CbWVzyZf64hpqZb5lLxD2MBWTa1UaUS6LtUzfyzF/lmWtZirzryQLufhIrI0b7MN6pftjAtZSnddoNeOWuJv7vmUqv5gfn5itG8S8zeKN389qTyDVk/DQuIDCS36uJPPr5nlXtKZPEEH2d8FaJtXUxOfTkgtvWmcHeFGyc0AgTcAn+iKFPfCnoAR6qBbNq72nPGsGW4m8RCPMqCwvzMnWRAzinFOKcUBKdkWZwzhnDOGEBR2LW+JtXc3jrkhV10AUGbSniXBIX4mTXh04HZx6cDu5NVNXGuGp9n/YKRrw6cDs49OBrAdpwSvqGhPPXJqEEVoIfYxKq68OnA7OPTga3cZfEuK0rHXJpYWY0JX2pQVh7I7Sa1RZyzlnLOWEFPZYBZzTmnNOaAmtj6+HUW4KkTghdiUv77laH3Egv3Ev8A7Q9EIIP/AIJN7N5vALLqzQVdQFDOeKrb3m3XLe5b3Fe4iNPfBNdLiFDVmmb8PJoN9nfQDcS3Ut715pS/4ZDLQBYv5GaUIvQKCwGN6FzcoPpEmn/MUOyyaMn5GbUAkATel1j5iUijafEVOyARZzznnPHXH4uSCgy3uW+9IzZmf33K2/8An7nlfMMDYX/77mXeyIRoQxsgBBCtDoio6HhQ+3t5PzB3IAp6SStgCmGkEC7z1S9mBUdrJ+Zl05Zg7yLf5gXMZo6p+IrTMHfeKcU4pxTinFOKEEroFtSnuU9ynuIL3d8LWc8545ejsVof4XB0YtIbOmriVKcwq95Xu/1+5Xu/1+5Xu/1+5Xu/1+5hH4m1n46Dau/iW6uG2NTeqBqr4QFrBxBF38RI0vxBF38Svd/r9yvd/r9yvd/r9xC6hE3ZlO2Bd9CJt0k3XpzzMszHNdETOgU3GqgZuXTNikfiHcQkHCwPFxd3Gewiire/8RiBop0AVfbsemLs7ap/z0N9psbH3aMWAwLaiKmIlrNyrZhFmyI1petMPipS98S7KIAdoxqoFRX3zFC1RWxGLhxGYo3lOmO2mx0VBnPOWcsE8mKrboSNsxA2xC7Qhv8Afno0UEQO8SxECnpHhNjiXUIrH8RU3mFQQ8iBYQwqql03mBQbQluXDVjpWi2ck5JyTknJOSckdIFvxBbz2DVjgnB0ODocGoErYdJ0ZbnBpAuDQBejpfCumTsgBt0cta8mm+xn6ZPawwFb40bn2aFRaV+IAJU7w2dK3icE4JwTgnBOCcE4JwTgnBOCcE4JwTgnBOCcE4JwTgnBOCcE4JwTgnBOCcE4JwTgnBOCcE4JwTgnBOCAFHX/xAAjEQADAAEEAwEBAQEBAAAAAAAAARExECAhYTBBUUBxoVCR/9oACAECAQE/EBaiJDjHZrXYTCdV0Q4E4DGi2gDctJeIAABqkxqc1CtoBW0ATwYxo9mAVCi40b+hPoqqJQeM9HifiMRk8xktmAT+hq5Y8a4HtpkanwTdY0mJGENewkpwcmD0GmskhUpgauezhoh6ODkpgi+SIU40ayYvQhpMiTYOI17C9UNJkVYJZG9ET0NJkpgyWzAJvgSTR2L71ydV2MyMTAywehgRRUiuDXsQIyCJrkVJ5o0tEooTZdGqJE6hT5EoTgl4EJ1CJ8sShJOII749CUWGS2YBInSaIr6R9I+lfT3N0BqiUUIHoIeCJpNiJcoaVwJJKCpJgaTyIsomk2NXZIPnZR8ETkmcGS2YPwSjR5OocnENV5OSX/Co3Rp96Scdg1+xeURrIja4FaXJktmDzIOLQIDEr0q6f0f0T9P6IJ+k/SCSP6R/SP6R/SP6R/SP6R/SP6R/SP6R/SP6R/RKGS2PEbGvO8aSY4honPDRw3BubhuKsuIykywbsE+UyzCYvNRzlk+/9FeGOcsV80Y08DJb8A/CaHXIrfAbPQlMbzcvJOBIcwxzQS8vA3yHMpi6QkSMjJGDex878A2s/E1VGf8AkYCRPkNmotwkNoTHFIOvR0/4JJeCRIJrxBjXwocrdgH+NVMTvArME9mUGtrvztzSydW3AN8NaiPvmaqmlOk1ZAkTvnbC0bhrVK4KsOoUTgiEqgnUGqnojcRgt7RM7DsOw7BzO+HMdh2HYdgzbd8ER0E2uAd7B2cFVCkJ+hBPk5Jvzbcn4c23J+XBuvMEcIaJWDVHvzbcn4c23J731iZqjdODGo9cG6c0sGxvWRIklvzbcn4c23J70IQiJK64NqVRF0epL0Q8IWInvyHUdR1HUK03fClTSOo6jqOofV31XBWcjt4PbXAPTSRA0KLrQuZIp+hoWR20b/4LocFQ6nG7JFVmrc60dAlFF5lD+D+CPgneV5+ZpiUUHTojje7JGD8eS2Os86NtCbikW/JDw/G92Gn6GSGstj4SJtp6DkoKqvsTsDGufDkv2WS2vkIvW9CcgucxKwMTnwubqOo6jqFp+XAPbTRERbW64MdHqV7HyZh5ngY+THJqDN0xzSvRtJV6ST2NIvHg/Y5LgTadQzISFEJx1DVJjW1wQV+LB/wTAZeYwfsYkQxK9glFB585X0r6V9K+lfSvpX0ZtO6NxUr4V8K+F3H51b4HUdQsaZP8w3rTB7Xb5b6h9F+C/BfgvwNl6L+FfCvhJRqhIqWDZehSuEOfQmfoTtyF+C/Bfgr9jT0hfjPE0drhtZybcDEyxomnsc1wd2jyUckGN1aVskhuxIEHXusHjSppg/CKrTExJvOizYNwSPAnOHSNGUKrYqXGrpR2cEpVjTbK5o2+k4EyfLEfoWSY/QWV+NFnRqqHUdR1Dm+RKcLYlXI02uBGhG3xpHeRqoV9icdLGPRR+9W9uRqqDU6MYsUGt0nAnTox4e6ZOo6jqOo6jqOocnIjgJaeBrceSqqkhRDDS0ZE8VVVTWj0hwtcHjWN+S8uLTBeMfwWzB4buog6/wAlStQ/NktvYdx3Hcdx3Hcdx3Hcdx3Hcdx3Hcdx3Hcdx3Hcdx3Hcdx3Hcdx3Hcdx3Hcdx3Hcdx3Hcdx3HcNt8vX/8QAKxABAAIBAQYFBQEBAQAAAAAAAQARITEQQVFh0fBxgZGh8SAwQLHB4VBg/9oACAEBAAE/ENqiNxxlEzF3Xg8DayFZSpznflOc78oFjNxZzo50c6Cot3Oc78oBN8He77QC3Sc32nN9pzfac19Jzfac32nNfSc32nN9pzX0lzCA5cJ8+nz6KkXCtyzm+05vtOa+k5vtOb7TmvpOa+k5vtOa+k5r6Tm+05vtOa+k5vtOb7Tm+05vtOb7Tm+0AWabFlLUGNHrEupOSgu5PkJyU5KfIRLc9ZyUG3PWfMTkoLuT5CI7k5KfMRLc9ZyUH3PWfITkpyU+QljRZwhcAz+15/v7Kx98O1I3gtDh4QS6Gcrfsi0cSJDr8nSNOq6VnIP0AWLo16HWUNHit+zGO4NLX9i89YM/dECqDlsQEFrY0MNMWByGtJaGwa02WQrvTEEM95SqiltQa42IWqt3LVhjLIMOJVRcctlowjpiAV1aYlVi7jNagLdiXB2MiaMQVopylxlNWNlXALrSZmCoxKQBbYkMNbEYMg6Ymhs/TLVA8Zl1eTHEYrYBrc+bgoaW8IkMaxAomnOKUKHDZaKF6XKlFecqsRTZVBm583LCkzpUSGJaApxYybAa1sTUg5ykRXQuUmusQWV5z5uNvpTpUSINJDNJof2vP9/Y7Hk7Qi4A37odKwVowu3AwbjexCBNznMYfgCTgt5/lx2ukDA0/GAqo2GmCto7/fJO6gAAAUBu20I5vFbv76z90/V/ezcmme5T3T9EdJ7BnsGOs9ls9mTTsjtOWzR5v5PeP6mqe4/rZ7N+th+r+p/L+7NDtvnt/wC5qmjy2fufuaGz9Ozv2o6z9D97P0TTPfP3O+5Gz+n8n7X6ZqnuGz2v9bD9H9T9X+7Q9umqavg7PaTRncOP2Ox5MUuP1TJbW5glGiHpUHBFHngyBoFOrsUKgVeUXHF0OBtcsixNzLbquE4mx0+kAdRHjY/z6CXosebgn7pYrZZyMJWFQqylhunIwhWGyvGzXLGltmcjCWCpQuSycpAKx2VrN4zkYrbI7C3CcjD0UlDrpAigRYrHYDvrqzkYhbCpQEXW6cjDGKTQ2fpggXpvBgS2OIDHXECvU7ksnxWNOFEoUyrlFm1XimZgHhBsKQL4gxK1uIBjS40gu4FVVYnxWKoVDdulDh0iuV3ihYUIN+AbMAD5BgKIKbwxC405wZjZwnxWKoqG4KJozuHH7HY8mGMkwXpWKIiG2rue07Fwn6NiP1UHufS1blbzb6bHT6d9oK4m89J7r5DwdoxjG2aWaE11mSwL8J4HojSVC3lKcCeB6ImkY5EpwIhqnoRQpr0SnAjHWa7vCfBJ8EgiAAgHNgABWOSIapXgSnAiXoZ5E8D0SnAgAiBZyngeiK1gvwlOBBiiq8CKKarwJTgRbo9J4HoiC6HpABuj0ngeiK9g9Nqi0GAH8CKH8E5KBbnpK/wJc6PSclK/wIpr5BOSgGnmBK/wJyUCbp6Sv8SLOj0nJSv8CKdAnJQD+hK/xJyUCdHpK/wItuekACgqdw4/Y7Hkx80TygLg5x75Ql5RrWazqC9+vKcShqvRrZT+XB46kZkUn0KcRweDT3vY6fVZffU1HxIKnECHWPXX5vX6KB6Qviyge0q4mx2ubBg89Io7V3fePYOiZbncfMpAGtamn82e3/qNag00kHxqoAIIlib52HiwWjR3s1xqKLGAYGxvaC0tBDg40BsfOEUAW0Z2gOiveVrrsQHXnx2qZd1L7sRFERMIy1K+VHGXJUMILpEI6wdjZLRksXpiVdqN4Lx+hcHrClxOTDBV7K/76LaJTBUisKajCN0PZfDZYWBSre8xvYSwfB77HRoWhuiQTdqkMcLgpyyL3mzFxYAJYul8JeZas58WwEJwKUXwlbJEcjbV3FJEUpptYqOA1Kvps1R1llhOksLIeGzuHH7HY8mWrQPqTWPKKqsVKwCANnec3azEXzxeZGigwiVWzWYPOHw9YTYCgNxsdPt1zI0stOWnnBugci0eFRLEuLdbpsrHY5CVv0RakSqs5V77HJcqVRZm4PEwVnUbFZM7ApmtK9Jgq0jcN+cpLrjTc7DxYbnNMzGvJvpM9K5Zy0PKjY6sdO9Tdjj1iTTJVvMPGGahLLlXNhYvF5imGcytIYG7hUxmthuHCtIt78MeIllR8W9BIKCHC24RLSjirPtEZVRwm7wykhBd+6r99gCEVe5hcXl0PF4fQfA4Cm5kh+T0YecZGKrUMZhqWg1x5RlhJpm6+PN6wBiizBjd3x2VsjsMC2OfSIiG9rwqg9IQBVq1MZroiWDgxTg3YuNyl45qMFMUFmjzmCbsNQngRWKa08n+x+oQFeePu9thSCCtjWlneksUTVMJw3wlnlgljiLsALG25rHjAsSXhtn3j0okwqZ3bBMU0DRvpmV+y5V92x3Dj9jseTBv/bFsutMZhkRcA5IhmOddd14Q0IDQKPorCm0qZzcsI/Q6Sp4fDBdBoCjR9nd6NONMJ3A1jK7q9Jh+racLb2IosRpsuFrlCgkqkasQz57G91zVFTd5QzrVkWwu9lMhZSzymrLtF8UrRAB0Ka65zsPFghFFiPMDVcFW03Z2GoXVc1Pm0PnK21ZjlkUAWrPm0Hp+iWNZ2ENEyUY6btWViEOqOF5OzHcq1wO45mu24FAPOd8oEB6N9Ov2MGCIHBXHbSlil5CKy4ANVi6eZtMYnz0sbuZ/dpusVXrMa+WsohLEs0fp1Yg2gsaFw+KfuDLmbAKZUlF7pS5CBUAzRncOP2Ox5MzINnhm9biseGZXjAABhgBRr8XIrrKeEp4RUIaiRJ8QnxCfEIZLMkp4Quk6M+VRO96pa/ZbZE5OlXmASuumz0OEGgAvDeNihVmULmHM0mAng0Veo9dgsCkU3FaxKAUQwzovWt+yrV1eaohLCpmmcV6Sy2gp3852HiwjTWho3kM2iAHg/uxao02yL1uIgoXpvPaBdI4KbIBZRAN4NxzvbTA9IVaiqUBWxjO4AgVT9x+SMQvSWFUy+C7ELaIsaNU+ONpIid07+MYsKTgu6+wi94ZdVvH12oA1GyaqatLvNZ2thd1BpZSV6bWPJLG1WJTnzjrjT6d2gpsHjLHQrXLlm5EamjhewLNHvbH9R28qLXkPDZ3Dj9jseT9FGVwET5xPnERKKuq/QDg9RPnE+UfhBB9XxORzloxUNRhoDCbPb/1N+eLFfXZ2HixDEgV1y1hVQt4M7aibYy3bqn721RtKHJp735fRQ108aqu3l/wC80CzyG+VIiAqtrPvsO21YzzG6XQwNGPE37O4cfsdjyf+AQmqzYjrjYbaQBl1nyvrPlfWClY8ICspdJ8XSPHVbXI9oLgfzdJX1HSIh1GxOr9JhvH4ukF09d0lmqm4n9TNWTxdJ8g6T5B0mU3Kx8gxKWm/xdJ8w6SvqOkx3g8XSfMOkpMk0WsvpFD0IFugvh+TSqokoY0C5f7wpVbtdi9COHKGmukwVQdQGc3qHLZ3Dj9jseT/AMXt3GIAW1DW9iaVuyvfv71lCzaVuCjd5xv8CovTVHnCb8UbfZFI3QvuVBTc4GlVp5yvEvx+FX6T3fac+QCOKb9lQrxiIo+UB6Ag1iVD6Ss4BEKpvowpQA1wFPQt9CCSypuF+GqcwgrYFK0lacnGalmLi735KSrgv1iOXnVLdgYdv4qj+2UXWUVWzuHH7HY8n8vEuXlOUwA3d6VOUzeGJymab6fRXMZXAuCQfVjHpzmcuQUE82ofYq8ll8SoO1ltCeFQJSAG0NMVBJi3dg9ou0ZbRsvyj75LfvWoL4AUNHlzjo4t3Y/U7I/kxjCW7iLEJJoLFKPKAxUGAM+kwkYSUqqxibjcMFsIm7lOyP5GQKKZc7wYxcTnAViJXCdpf2dpf2dpf2dpf2dpf2dpf2dpf2dpf2dpf2dpf2dpf2dpf2dpf2dpf2dpf2dpf2dpf2dpf2dpf2dpf2dpf2dpf2dpf2dpf2dpf2dpf2dpf2dpf2DNFUFbPG9ncOP2Ox5P5dbXpcGmmxizx2KSu+t66m6GePlaM/V/1u4cfsdjyYYDZWjGE0u782btn6vuGj80Z8B/YfDeGQ/yJqXPBAlbivHpNXw8A9HZlxrUweJg433t49BAaH5IsEOJt7RyAZSsH9g2fLomLBfqbEIPuN3NhTeFiPXf7QM1vZxna6k7XUna6k5rs5ztdSdrqTtdSdrqTtdSKms7OMabkMx67veIQ3Z3/f7hx+o2Na5aqCDXhjsZg3eIdVrzJUFFN4JzHpOY9JzHpCMJtrSIa3EggtC1bDjCAiiithpTj8LHcdrN5ZcqK9Lj/OTJXx2CTLQ3xrjN0HGYyN2fq+3hAvnvAixht3sEUng0WvF6ShLebT0hkD4opPE3yjnigSWxuM/MvnD4GtXfzZSpDDmPI/srwPgPQhQ4tq+usFrjRNVwZaGOQ0/06xCBU0BvlORG+I8PAlrtQqLjyndX8iy5iViXyiABQB30XGlOaUoHyndX8lXnXiK0gQjaalq+UbcV1yvKzMoWGxiZQWFqvGYZzlxIREDrd06kfUAb5nDwYiAiNI7vvdw4/UDaDh1mmHpPjJ8ZPjJ8ZPjJ8ZCUAcpyihAAtBRq03XEtwLkYtq4X+EqCWALOvnG9RiLCqZ5QBd0MvQGN0AppYK80xQ0pWD5zdGJ48E0fbBKZZXwx/IQWrk4rg/XvFDoegVfj4Tk+znDV3oKOPLwj5Ssnup2OLSxijMVlFhp4y4e0oSqKzL0MoaOfJhKzWo5hY98YQUzR5VmGbQ30lnvW1s6cHEekDkWHeA7/F/U77xQptgFnFHAgAFVo+LZ7NjG8fGWzSPN6V4O7leIWbqaPZ2EDYa4FU/WwdII9Zb7397uHH6vav2J2vKbmu6IxwhxVR0GN37fhC6RXuGNINZQAaAcISWhxjvxfDMQlDyIJVODFBtFXm/eGjqonjn+wSmvvBPn2ia3a6Xp8zsf7mhwClYtf7GHMbz6WxkvaE3PGa0CqlmSoAcgDGgTTIhgzKX4lPKg9/aCldw88QFqi/rMe9bCFDtWIAGpdHgf12d94oVeUF4UQYICZNggxthrmG4VFXCm8nIQ4VbqlcUctvzZ7GzJGStyVT97GbIR6Sn3v7yElBsTcwmoDyPE6fT7V+xO15RWmVXQXEUiFCpjP/EPAszwdzBSp4TdwSK19yOfMlqF4Wj1ci2ukow8FARdh6J3vjw+YcUL5GDq1ZWpPB6ynI+OG8t6VV5aw3kXL6qXNFtm/wDxHLRLE3MQoMHAekAWlrGmDwXQA/UIwoOT/KMIABdMlRWiNoC30na6ErPycRrLCrCgWvW46sA2tzBNr5p04Qzjrkpp4POZKPDStPTMVs5zmX/InEcXEekZhUtXe/fUoixHIwmoDyPE6fR7V+xO15RNVozAooxcYiiV0pQr/iggRwZ9Hj4QoiXe29GBWA4oiihucvvpNDC4T9u/Zm6fJQMOOaPrCLI4gYCpa3Fn0I9BeFavDhtOpDU3JwYU3oh/pBi/cdJ8C9J8C9J8C9J8C9J8C9J8C9J8C9J8C9J8C9IkX7jpN1AYf6RolNOAcD8FSiLEcjCbgPI8Tpt9q/Yna8oZUZvCovWBREBRu6ay5d//ABaOtUzDekCQ2ql1AhEdFAYKCrE1EGIjVym/CUlqpmW9IIBAt1g2QsrVZMFRYJKEwPaR6QbwxHA3qFJ/wlKIsRyM+K7Pav2J2vKYVg1rxac4NLoC6xpwf8RNVD4IBdwwKrw+QRELQHwaamGRlM7yvTLHHiim8tKijKIa3T+5779pS4JZwpLX/wBnIQuR1DSlD+xTtZXmfhHWMrd6g6sYICTyU/1/OzZ1qYPEwos7wQHrKW28Br5nSOw1g/R7V+xO15TDGgqgEb9ogN6qUA1ben/EcLUgGqXF/uK4R11V6V4TJyFOKPWaNBzRWnSYo4A0LN+kN+ZZXbETlJQ4wJZFZUGlexKd4osrH3VuDI6eUdF0HICJjwIYNYFT1hEI6bdH5oq2oDmwBjBfEb3aA8BX9n0e1fsTteUJW7eEHqcQQ21UrgOMNfB+m1Nq6FwZoV4WnZX8ia0TiqIgIjSO7/wnKVPodMylty8bfav2J2vKGTHRKZk8F06X57EGJCtHVlgYADGCcH99ZXeSld8H77J7l+yCMXaQW6fmOsd7O4cfv3lLqX+cv85f5y/zl/nL/OX+cv8AOX+cVDxL/CR1Uztk7ZO2Ttk7ZO2Ttk7ZO2RWV3n32doQeZHV0YcW82m4KUd/N8voSwQM2wAfeIzMRSs5jlIWYrEFUi0YufKJ8onyiIMos2Vu+hVwaTeQMqyBCxMibeGbeMbJE8C82RkWBUrGWdc1PImuoU8F+/8Arfa9gfhanj9r234GCEdTPiR58cQe9S3Lze1XkdYxB+O7kfV2PJlhAsi9+kQ1o/4+w+SdbsGvi8o1kUOonnLcWJU0fuHAobQ1vIGWQ3RfDS1l4nVEIeF/f/W+17A/C1PH7Xtvyex5P2iQAAtfGOGXWWBd3ct7GaXr+39nuH7J7OJWQOfOI1sZ1Z2Dj9/9b7XsD8LU8fte2/J7Hk/d3KatUwMoA7t87q/sRUoc+tERFTarl+/+t9r2B+FqeP2vbfd0jWc56znPWc56znPWc56xxpWcfq7Hk/bRALCboCRQFd9NTuOaMEF5kLKT6QCAek98fo+/+t9r2B+FqeP2vbfd1JZy4YncQ3gc4I4bAIBnCWaQInrZG4a/V2PJ+2UygU1SkI2o1G3TMG4F2rRowkJL3eMWP4YqT5UgjkSkbHB9/wDW+17A/C1PH7XtvuhL7mYcLXXOEgrDTYaWk3zAm8VpAgH1djyfugnJuIM0Oz4eJLSPCA24CP3/ANb7XsD8LU8fte2+6x+qeB9Z4H1ngfWeB9Z4H1jyDD9XY8n7QFcJNgt5rylN6wBQYajoVrovdOU90g6i64y0w+TElHE/Ab9b7XsD8LU8fte2+7qTDGNb0GHDvw2WHRvVe6JFYLWH9hhPq7Hk/abkKUhYOZMNgRBRyIDvXEb7v+QeSAmGYlWTs1ipT2HOMSzzDrCLRLL1++zhmdpnaZ2mdpnaZ2mdpnaZ2mGidQ/CvbVO+p31O+p31O+p31O+p31O+oKBwPu6kuQZbXNwNl7LILyx5RVBaJpDX6ux5MCAarUWpgLr6BDUADezmhsYgYiFBqRQKNKcYTTBsOHxR/hdbWACpi2cQhmrqi5QUK4v+53jrHaoO2+cAlmqvF/+CIXokrw9ZXh6yvD1leHrK8PWA5U8vo556VE+ExRKWR3RUG7RZumJLU0nwE+AnwES0A3PJKITQFs3VG7dHSsDgA3b4wqY4w0Gb3+EA+xawtrThi4jtjZHLe85e/cYFda853HNPcMqslvKKK88J3HJ/wCCfkENU0wouLgy6UrYJcmgR6eZVI+L6K9dYTvqd9Tvqd9Tvqd9TvqcCq3RV1lG99YKaLNNJrrLXVh8DZV6aVMIDxdZ8h6x0LHn6w+QoutNK/8ABaktFC7uuhDQK6667tgOKC8+TCvLLXwhr9Htn2PeJgSEguFldTAacMGv/F5GEVbVLN7DmY36nygmW8A/sAzHgf5Hw03vggY5MhUKw13n5y3Tz+pXyN/0e2fY94hALLeLVYjAWXhCr3GM6/8AF9psA4brU1y+nFYDEZ/xArrSdw4wrDzPzqEQQBWa6ZIi1CkGXcPHMBt4XAU03OQ9JyHpAAwfR7Z9j3iEsqKqCg0L4xdWTXlOA4c/+L7SZir9M7hxfUGIhDx3j+z3H52BsMEum8C4hZTRLEYrBCcFqEybfH6/bPse8TgAABIg1yYCopaVwdW/d/xfaTsRj/Z3Di+pBESx1JwZUeA/8f2z7HvEJpTIJYkoa30yswDfApx5/wA/4pYOirc03zDsszuHF9dsth5U1X7/AOP7Z9j3iZ86AEbIllxwYSwDDUmV+vdt95Zu+k+Tek+TekGeO3qqnyb0nyb0jryIi6K4z5N6T5N6QFYZLat9J8m9J8m9IHWLS161w/C9pKkmE+Zh/V+c7hxfUxtCp5EbVirzb/4/tn2PeIZoAgbwrXzgOKBbwXjTn9eqYxvmDCm8+kS/qNFty6zt/CKyLW+eHWZVoE3Bx5kMchCOExBbnp8F8LmkHgS7eCBDesbBpg1rJgnT5nz+LcoqUrcPwvaQE4trnw8/4QoxEBHdl9R+Hhu4POZeL/x/bPse8fZ1TEnNYHFN4XjUeZeKrDppdTv/AAjhGDkNXLhKNlQaSG7diA4AQBu0icAGu7lesDiA13cp1nZODOLV1Cr10eU7HUlW6qWtYO/8L2my3EV7ppM886wORMiO1QLWiMCaWNPFFdKLeEgoP+PccQlOKU4ynGU4ynGU4ynGBq7/ANncEF1XS+DznzDrPmHWALL47Yes+YdZ8w6wu5lIqb45nzDrPmHWC5BmwyXz5z5h1nzDrBRjpUvW+P4ROtEqJNAXG62MSMDxT0gdeG1/jEma53/kKVvgP9lMqN6NsJBQf8gGgHBLnxSZvI0XHdFAhBFZzEtdgwmKzPnM+cz5zAEUOor7LYghbgb2MxYDf1pl78RIU+DAVJ7A6NPZh3yq3DA9I5qKSGrxg+FsgMIWVLkS0zRlXGzq2KbunHYWcCwtLoE3iiCU18YTkBKAeJ+aWlEDOc9YahLG7YADooM5z1hNSXd5hlJznrFgIrWv1++CsfkdjyYqNKDxIe4a6Hr9149IA3uPLWHdKnFktDOspoGQDHLLT1lBC0FDS5474n5bFGV1G4gNJVHTjfhuisYpHeKKzz3xSrVhKAEH3lIa7FKul8d0QuKysoecGVxbSw0q4DSUWZNdPKJNJWVlBwK/N9u2e0Z7Fs/cmh4/Ux8Z3EEQEXlBi2b+ow2qoG8xBmmb+gxBRBOIyxGBqcPxex5P/YWgCHE7EiCBzVNOijOxIIQZa1AUY9iQcFpatS0itF7D5m4lVOa6CC0d8efLh9CVPdBT58ZV+nd6CBYYGpw/E7Hk/wDY1PrbpqJXcGe02IZNMc4Lw6vqgzeLhMD3aB5P4nY8n/san2Pfp7XYY6xk8XB/fsGYotfiD/E/E7Hk/wDY1Pse/T2uwuKQez1+wHFCPxDseT/2GCtlOJKcSU4kpxJTiSnElOJGNKap7TYYxyA+WH9n2DT6ino1/fwe/v5O7v5O7v5D0G1CN3M/7GSJ8WdhZl5brsZ2OtOx1p2OtOx1oZqAgyzsLBJ0NDY2epQm9awQwLE3n1MiAWrFyWyLcAfn8Hf5m9Zf5y/zjVyw4ZzPpOZ9JzPpOZ9JzPpOZ9JzPpOZ9JzPpOZ9JzPpOZ9JzPpAtNIN3jG2NEiV9SWo9ZynrOU9ZynrOU9ZynrOU9fz/wBr6fcP39HuIUoygGCRQiaaip8qnyqfKojQqAdsAMua0Dg/rPdv0/iXWSdgnYJ2CdgnYJ2CdgnYJ2CdgnYJ2CdghZ5Dd4wFVlfpRRrU1iYHUAtZVhvN8zoQvSuKP+QCnyCv1BF3ez7D1lgyuMp/ktz53P52Opu9Gcz6pzPqnM+qcz6owbRSfQqKYc3sIxzxNYbWHPDOS9EDUq4G33qBtO4bWvF6bESGEq+Sf38W0tLS0tLS0OImv0mvwJ7P9aRnVPn9IZBUosYokr+vh4RuK3P4VPCU8JTwlPCU8JTwlPCU8JTwlPCU8JTwlPCU8JTwlPCVtp4SnhKeEp4SnhCWAB4DlUp4SnhKeEp4SmU8JTwlPCU8JTwlPCU8JTwlP4Y0ylSzjLOMs4yy+dxHocES5fSq0a5PhPY/qNC6jHVwFz+2KrYVN91cIcHppvYgAlVu6fIYlNOEldSUtHHnOT7OU5Ps5Tk+zlOT7OU5Ps5Tk+zlOT7OU5Ps5Tk+zlDKlhbAHNboUUdknNanmTP8o0jVJR4k8M1UcKivJ19YrDuMwKvSbmBduv8AsMbMEPPOzu3CVNAPxGoAiO1vDlFBwiutg/2EmdcJNd+ENAIUmrcuFGl6Ab2LStbbLaV5zO1XGBViyubE14zoRutIxLUiWseMW02wnVlWe8wktS7PmTk+zlOT7OU5Ps5Tk+zlOT7OU5Ps5QvSaGoPlLPT+RzYJQ3h36G6KWA8G6bvmgoXmS6YaT8Pe8J72Ztt/wBKzLFPsxPY/rMxprxLP4fboCIRUVXBjlCeIAtWPBHw2XGkGs4jBdbR1cCeNWb4/bwqCF1fmhajtW1rNSjZJpAHWzwgGINIUWL/AGWPzTTIOfCVjBgm5r4pc0Myj3UvQb73fkxs7NwlUboRQ0zeNCb1ywOEQ37ypdhohyXXHFEz7OiWWubzqy9TS24QLSNHZd6O/VlG99dg2WnlFpYgmjRWDw2UTOuiy9KddIHwXLqmryl2qkaGlo519kBlGkPAAf77fRWbV4m8/v4e94T3c1/H6F5YXe7UgoO657H9Z4OQDXNwiyDIP2hoQZG6KqEDSyk1ddlw5eaL3QULcOcmPaARoieuwfol2rHiaxEBE1E+wADdEBPkc+Rz5HB9PVz5JPkcthucg2Y4DVlM+Rz5HPk8+Rz5HPkc+Rz5HPkc+Rz5HPkcxxGrLfsDZZa+CH+/Qe9hr0fv7/o3vCe7mv4/SqgMD1MPXznsf1haWNPLX3v7CJjCoArFhfpGgMLqoKxpsuxJsjFc1fOC82VqW58rvYZIg5GIrPYqeEHwniE14bAEU8KR8TMx72C7rmuv0giMOmHWfFOs+KdZ8U6z4p1nxTrMpMuSN1r+43BXwArMbsjDfQ/v1JDIC72l01AY+1gMcT+y1W1JZHithaFT5Z0lIVDdd4yrGlVGRMKFQUvS+fCCQAEWJnI+mxOZvmqxd6nOL4ponUagll4V8NSOKsWGqaxC2zdha8ZqEFBVhQ8NjKbwHis4l5zJjMfNI0HDj5Q2ZrBo7EBUAZVgIlgRot79+wlJSUlLeERj4xuF4v6UTJC1p3cHn0gIIAI7vqBiU+I4xLVVWr9jTcWt2YQFAFZrHYTEIcqCLYNeERKiELAI7nhWzGgIXV4iBXTBEqxXhvhGKBB67D0qqs7Wrb90MBoOlttDzDZZwQZN2cxNImxC/BEVnZ7J+pcXmbVvNgY3ALAd8EoVdHIMkaGqdinmeW3gjKzfIYujVhLQ7/qHJqwZg7c5RbxwQIjVebgYxLYXhgW0axcZO8ShvzsclEsFXW95wk5ZSrz7AOKbE3kCKiqOnQqKOtEKpd2yvNXW5jy4MyK5FGvJ37KORgaAeUtjVtKHWk02Wx0bVleUx77jbrMEj4b0ffWpr9G94TIOSUK+pEVrV3Bz6wi9FiN/Q6ocyMsULb4AlAMrq8fsF4oAhKsYOUbhlUNK78bAlrGlou/WYhLEIjdvtsVIEGtzSlePdFtcLzcQolLaXV2BZ57Gwa82mkYRMtaq2xPHYRbijWLqr85UqPbYGvNqbPZP1KYVW08ntH0CC0A51m9hDbRUaPSZTeVLkWvd29XAKKUMS5GyuiPfj9VY4WDR8OsMplTIU14ecVSuVyyvKFilnCK+gcS3GOcvZwgaV5QCCpILwIT4ZFry0gALMeGqy9jhQkDyH7m4secjlxriMEXad8tr13YN2MsPjKNCC8vGL33YKLw89mH/ABELVkrT1ikSREQDRnw+0tCzwzwTwTwTwTwTwRX1b3hPbvpN1vIi0HmI74lgB5CekNrwT/aKMA8w/wAgqBXGX69IttJmzKEZXV4/ZpT6DAPXTygLYKwV5NgTKW8a6qWmKS8T52ULj2WXOfq6pVxWKrW8bFHUNRih1PeXGKTVUbH5gpQMxNKIKix2bPbP19bIJQXVB6Q6g0/zD6hUKRNEmKOWf21mLKtvGxQozis9HEKrWgq/HYZ44KmCgWryHntqBA5L3hIhLQY2XgXNh8ooeaDR2AlBojSRGVSkN++v2nTcCW+Ut8pb5S3ylvlLfKW+Ut8pb5S3ylvlLfKW+Uvd/tK9VYfv8RaF4TjDO4f7HdDOUzvEd2eicphvz0TuH+zlM5TO4f7HdjOUzj+yO79k5TERYAadU+H6p8P1T4fqnw/VPh+qcdPVM3XB5Q3/ALJw/ZBoB+hBSmd0Osd37JymG+9k7h/s5TC/J6J2Q6xvweicpndP9juvZOUw39PKdkOs5TC/J6J2Q6xvweiUCb/odUhy/veX7nx6P0OuzE+bdJ826SiF8CgneJ3id4neJ3id4neJ3id4neJ3id4neJn6JnaK9NjBlFbxeBCKCbmz5scK3vKPqS9DZm9fHy+/7CWFkovE5k6hWl5mpDZtyHQaar2VrNFrEI1uglUC1lqwpOZNRddwY6MO00XiCgCi29lk1o4QZC85gC1eM04UiSi4zUjWgMdIQi5F4hUwxcxJ9GtprMQqwa0lsUg1Wy8WcEG0DyiViIlkAufATO6tB2ApcENIVatlASpagg2KtJWi7jQsUonwEx7LuTR2uqQ5f3vL9wAACg+nseT+ACoGriVK1U1vd767a7jUcSI22rbjT972ECiFqsE+SQoERBYzUjWI1kXCN55VWVx2GxluBfGDRMDm3Gatn5JCMRLw+MdGC0jeC47GbyVvjrARFZgLnPXxbGkjuN8UJiK3CVHSOhlbi5ayLZSpp/RrfGKQQVu5whRcRy2ZUUvQvhGARnKcpqhUwttPlUCGlIP1sHMY4hyhty1alcdgIjyEEiBTdNUyXhPlUCElNaM0djqkOX97y/cAAAoPq7Hk/gcyQxyrCx5fQpl0TxL+97KNsLO6dkmoUZXEhTjDwiTOPhKeEAq3i1OySyuqlwOTunZJgKGVe5gQMHhKOcfCU8IDjJvtO4opdPmgQq1xU7ihNPqpvPOJUGDB4Rpzj4S9Wvodal52FhTsPVh2Fy3UeYs7G2ujK4lwqxKpTsLV4rsKtuqjyZO7Y110ZoQggiCO/MAAAoPr7Hk/glLwk0HDx2hfHTTp4+P4NvF228WWurstNGW8XbbxZd7LeLLXfs9k/X1tab5bxfqt4stddgpoy3i7beLtt4stdXYKb5bxdtvF29w4/YPG6vAqun4Qx4biftFiU4T3GYqtuX/ghBSFaPWfCvWfCvWfCvWfCvWfCvWb/pqrvrp+YWttF5A2/YdmBSOiRI0rug8G52vrO19Z2vrO19Z2vrO19Z2vrO19Z2vrO19Z2vrO19Z2vrO19Z2vrO19Z2vrO19Z2vrO19Z2vrO19Z2vrO19Z2vrO19Z2vrO19Z2vrO19Z2vrO19Z2vrO19Z2vrO19Z2vrO19Z2vrO19Z2vrO19Z2vrO19Z2vrO19Z2vrO19Z2vrO19Z2vrO19Z2vrO19Z2vrO19Z2vrO19Z2vrO19Z2vrO19Z2vrO19Z2vrO19Z2vrO19Z2vrO19Z2vrO19Z2vrO19Z2vrO19Z2vrO19Z2vrO19Z2vrO19Z2vrO19YXZA5f6jTPE1Dy5H/pP//Z;rotation=90;opacity=50;" vertex="1" parent="1">
          <mxGeometry x="299" y="370" width="373.23" height="285" as="geometry" />
        </mxCell>
        <mxCell id="0IAkI9OCKzNmR89N-cbS-2" value="" style="endArrow=none;html=1;rounded=0;strokeColor=#FF0000;strokeWidth=4;" edge="1" parent="1">
          <mxGeometry width="50" height="50" relative="1" as="geometry">
            <mxPoint x="319" y="540" as="sourcePoint" />
            <mxPoint x="366.115" y="540.0039772039786" as="targetPoint" />
          </mxGeometry>
        </mxCell>
        <mxCell id="0IAkI9OCKzNmR89N-cbS-3" value="&lt;font style=&quot;font-size: 10px;&quot;&gt;HiLetGo I2S DAC (VIN)&lt;/font&gt;" style="text;html=1;strokeColor=none;fillColor=none;align=center;verticalAlign=middle;whiteSpace=wrap;rounded=0;" vertex="1" parent="1">
          <mxGeometry x="204" y="531" width="116" height="15" as="geometry" />
        </mxCell>
        <mxCell id="0IAkI9OCKzNmR89N-cbS-5" value="&lt;font style=&quot;font-size: 10px;&quot;&gt;HiLetGo I2S DAC (GND, SCK)&lt;/font&gt;" style="text;html=1;strokeColor=none;fillColor=none;align=center;verticalAlign=middle;whiteSpace=wrap;rounded=0;" vertex="1" parent="1">
          <mxGeometry x="171" y="544" width="150" height="15" as="geometry" />
        </mxCell>
        <mxCell id="0IAkI9OCKzNmR89N-cbS-7" value="&lt;font style=&quot;font-size: 10px;&quot;&gt;HiLetGo I2S DAC (LCK)&lt;/font&gt;" style="text;html=1;strokeColor=none;fillColor=none;align=center;verticalAlign=middle;whiteSpace=wrap;rounded=0;" vertex="1" parent="1">
          <mxGeometry x="663" y="664" width="116" height="15" as="geometry" />
        </mxCell>
        <mxCell id="0IAkI9OCKzNmR89N-cbS-8" value="" style="endArrow=none;html=1;rounded=0;strokeColor=#000000;strokeWidth=4;" edge="1" parent="1">
          <mxGeometry width="50" height="50" relative="1" as="geometry">
            <mxPoint x="319" y="553" as="sourcePoint" />
            <mxPoint x="366.115" y="553.0039772039786" as="targetPoint" />
          </mxGeometry>
        </mxCell>
        <mxCell id="0IAkI9OCKzNmR89N-cbS-9" value="" style="endArrow=none;html=1;rounded=0;strokeColor=#00FF00;strokeWidth=4;" edge="1" parent="1">
          <mxGeometry width="50" height="50" relative="1" as="geometry">
            <mxPoint x="618.11" y="673.3" as="sourcePoint" />
            <mxPoint x="665.225" y="673.3039772039785" as="targetPoint" />
          </mxGeometry>
        </mxCell>
        <mxCell id="0IAkI9OCKzNmR89N-cbS-10" value="&lt;font style=&quot;font-size: 10px;&quot;&gt;HiLetGo I2S DAC (BCK)&lt;/font&gt;" style="text;html=1;strokeColor=none;fillColor=none;align=center;verticalAlign=middle;whiteSpace=wrap;rounded=0;" vertex="1" parent="1">
          <mxGeometry x="664" y="651" width="116" height="15" as="geometry" />
        </mxCell>
        <mxCell id="0IAkI9OCKzNmR89N-cbS-11" value="" style="endArrow=none;html=1;rounded=0;strokeColor=#00FF00;strokeWidth=4;" edge="1" parent="1">
          <mxGeometry width="50" height="50" relative="1" as="geometry">
            <mxPoint x="618.11" y="659.3" as="sourcePoint" />
            <mxPoint x="665.225" y="659.3039772039785" as="targetPoint" />
          </mxGeometry>
        </mxCell>
        <mxCell id="0IAkI9OCKzNmR89N-cbS-12" value="&lt;font style=&quot;font-size: 10px;&quot;&gt;HiLetGo I2S DAC (DIN)&lt;/font&gt;" style="text;html=1;strokeColor=none;fillColor=none;align=center;verticalAlign=middle;whiteSpace=wrap;rounded=0;" vertex="1" parent="1">
          <mxGeometry x="663" y="535" width="116" height="15" as="geometry" />
        </mxCell>
        <mxCell id="0IAkI9OCKzNmR89N-cbS-13" value="" style="endArrow=none;html=1;rounded=0;strokeColor=#00FF00;strokeWidth=4;" edge="1" parent="1">
          <mxGeometry width="50" height="50" relative="1" as="geometry">
            <mxPoint x="618.11" y="544.3" as="sourcePoint" />
            <mxPoint x="665.225" y="544.3039772039785" as="targetPoint" />
          </mxGeometry>
        </mxCell>
        <mxCell id="0IAkI9OCKzNmR89N-cbS-18" value="" style="endArrow=none;html=1;rounded=0;strokeColor=#00FFFF;strokeWidth=4;" edge="1" parent="1">
          <mxGeometry width="50" height="50" relative="1" as="geometry">
            <mxPoint x="319" y="606" as="sourcePoint" />
            <mxPoint x="366.115" y="606.0039772039786" as="targetPoint" />
          </mxGeometry>
        </mxCell>
        <mxCell id="0IAkI9OCKzNmR89N-cbS-19" value="&lt;font style=&quot;font-size: 10px;&quot;&gt;D-pad up button&lt;/font&gt;" style="text;html=1;strokeColor=none;fillColor=none;align=center;verticalAlign=middle;whiteSpace=wrap;rounded=0;" vertex="1" parent="1">
          <mxGeometry x="237" y="597" width="84" height="15" as="geometry" />
        </mxCell>
        <mxCell id="0IAkI9OCKzNmR89N-cbS-20" value="" style="endArrow=none;html=1;rounded=0;strokeColor=#00FFFF;strokeWidth=4;" edge="1" parent="1">
          <mxGeometry width="50" height="50" relative="1" as="geometry">
            <mxPoint x="319" y="619" as="sourcePoint" />
            <mxPoint x="366.115" y="619.0039772039786" as="targetPoint" />
          </mxGeometry>
        </mxCell>
        <mxCell id="0IAkI9OCKzNmR89N-cbS-21" value="&lt;font style=&quot;font-size: 10px;&quot;&gt;D-pad down button&lt;/font&gt;" style="text;html=1;strokeColor=none;fillColor=none;align=center;verticalAlign=middle;whiteSpace=wrap;rounded=0;" vertex="1" parent="1">
          <mxGeometry x="227" y="610" width="92" height="15" as="geometry" />
        </mxCell>
        <mxCell id="0IAkI9OCKzNmR89N-cbS-22" value="" style="endArrow=none;html=1;rounded=0;strokeColor=#00FFFF;strokeWidth=4;" edge="1" parent="1">
          <mxGeometry width="50" height="50" relative="1" as="geometry">
            <mxPoint x="319" y="633" as="sourcePoint" />
            <mxPoint x="366.115" y="633.0039772039786" as="targetPoint" />
          </mxGeometry>
        </mxCell>
        <mxCell id="0IAkI9OCKzNmR89N-cbS-23" value="&lt;font style=&quot;font-size: 10px;&quot;&gt;D-pad left button&lt;/font&gt;" style="text;html=1;strokeColor=none;fillColor=none;align=center;verticalAlign=middle;whiteSpace=wrap;rounded=0;" vertex="1" parent="1">
          <mxGeometry x="236" y="624" width="84" height="15" as="geometry" />
        </mxCell>
        <mxCell id="0IAkI9OCKzNmR89N-cbS-24" value="" style="endArrow=none;html=1;rounded=0;strokeColor=#00FFFF;strokeWidth=4;" edge="1" parent="1">
          <mxGeometry width="50" height="50" relative="1" as="geometry">
            <mxPoint x="319" y="646" as="sourcePoint" />
            <mxPoint x="366.115" y="646.0039772039786" as="targetPoint" />
          </mxGeometry>
        </mxCell>
        <mxCell id="0IAkI9OCKzNmR89N-cbS-25" value="&lt;font style=&quot;font-size: 10px;&quot;&gt;D-pad right button&lt;/font&gt;" style="text;html=1;strokeColor=none;fillColor=none;align=center;verticalAlign=middle;whiteSpace=wrap;rounded=0;" vertex="1" parent="1">
          <mxGeometry x="229" y="637" width="92" height="15" as="geometry" />
        </mxCell>
        <mxCell id="0IAkI9OCKzNmR89N-cbS-26" value="" style="endArrow=none;html=1;rounded=0;strokeColor=#00FFFF;strokeWidth=4;" edge="1" parent="1">
          <mxGeometry width="50" height="50" relative="1" as="geometry">
            <mxPoint x="319" y="660" as="sourcePoint" />
            <mxPoint x="366.115" y="660.0039772039786" as="targetPoint" />
          </mxGeometry>
        </mxCell>
        <mxCell id="0IAkI9OCKzNmR89N-cbS-27" value="&lt;font style=&quot;font-size: 10px;&quot;&gt;D-pad select (middle) button&lt;/font&gt;" style="text;html=1;strokeColor=none;fillColor=none;align=center;verticalAlign=middle;whiteSpace=wrap;rounded=0;" vertex="1" parent="1">
          <mxGeometry x="186" y="651" width="132" height="15" as="geometry" />
        </mxCell>
        <mxCell id="0IAkI9OCKzNmR89N-cbS-28" value="" style="endArrow=none;html=1;rounded=0;strokeColor=#00FFFF;strokeWidth=4;" edge="1" parent="1">
          <mxGeometry width="50" height="50" relative="1" as="geometry">
            <mxPoint x="319" y="673" as="sourcePoint" />
            <mxPoint x="366.115" y="673.0039772039786" as="targetPoint" />
          </mxGeometry>
        </mxCell>
        <mxCell id="0IAkI9OCKzNmR89N-cbS-29" value="&lt;font style=&quot;font-size: 10px;&quot;&gt;Add/Delete button&lt;/font&gt;" style="text;html=1;strokeColor=none;fillColor=none;align=center;verticalAlign=middle;whiteSpace=wrap;rounded=0;" vertex="1" parent="1">
          <mxGeometry x="233" y="664" width="84" height="15" as="geometry" />
        </mxCell>
        <mxCell id="0IAkI9OCKzNmR89N-cbS-30" value="" style="endArrow=none;html=1;rounded=0;strokeColor=#00FFFF;strokeWidth=4;" edge="1" parent="1">
          <mxGeometry width="50" height="50" relative="1" as="geometry">
            <mxPoint x="618" y="531" as="sourcePoint" />
            <mxPoint x="665.115" y="531.0039772039786" as="targetPoint" />
          </mxGeometry>
        </mxCell>
        <mxCell id="0IAkI9OCKzNmR89N-cbS-31" value="&lt;font style=&quot;font-size: 10px;&quot;&gt;Volume up button&lt;/font&gt;" style="text;html=1;strokeColor=none;fillColor=none;align=center;verticalAlign=middle;whiteSpace=wrap;rounded=0;" vertex="1" parent="1">
          <mxGeometry x="665" y="522" width="84" height="15" as="geometry" />
        </mxCell>
        <mxCell id="0IAkI9OCKzNmR89N-cbS-32" value="" style="endArrow=none;html=1;rounded=0;strokeColor=#00FFFF;strokeWidth=4;" edge="1" parent="1">
          <mxGeometry width="50" height="50" relative="1" as="geometry">
            <mxPoint x="618" y="518" as="sourcePoint" />
            <mxPoint x="665.115" y="518.0039772039786" as="targetPoint" />
          </mxGeometry>
        </mxCell>
        <mxCell id="0IAkI9OCKzNmR89N-cbS-33" value="&lt;font style=&quot;font-size: 10px;&quot;&gt;Volume down button&lt;/font&gt;" style="text;html=1;strokeColor=none;fillColor=none;align=center;verticalAlign=middle;whiteSpace=wrap;rounded=0;" vertex="1" parent="1">
          <mxGeometry x="666" y="509" width="94" height="15" as="geometry" />
        </mxCell>
        <mxCell id="0IAkI9OCKzNmR89N-cbS-34" value="" style="endArrow=none;html=1;rounded=0;strokeColor=#FF8000;strokeWidth=4;" edge="1" parent="1">
          <mxGeometry width="50" height="50" relative="1" as="geometry">
            <mxPoint x="618" y="646" as="sourcePoint" />
            <mxPoint x="665.115" y="646.0039772039786" as="targetPoint" />
          </mxGeometry>
        </mxCell>
        <mxCell id="0IAkI9OCKzNmR89N-cbS-35" value="&lt;span style=&quot;font-size: 10px;&quot;&gt;LCD RS pin&lt;/span&gt;" style="text;html=1;strokeColor=none;fillColor=none;align=center;verticalAlign=middle;whiteSpace=wrap;rounded=0;" vertex="1" parent="1">
          <mxGeometry x="665" y="637" width="60" height="15" as="geometry" />
        </mxCell>
        <mxCell id="0IAkI9OCKzNmR89N-cbS-39" value="" style="endArrow=none;html=1;rounded=0;strokeColor=#FF8000;strokeWidth=4;" edge="1" parent="1">
          <mxGeometry width="50" height="50" relative="1" as="geometry">
            <mxPoint x="618" y="633" as="sourcePoint" />
            <mxPoint x="665.115" y="633.0039772039786" as="targetPoint" />
          </mxGeometry>
        </mxCell>
        <mxCell id="0IAkI9OCKzNmR89N-cbS-40" value="&lt;span style=&quot;font-size: 10px;&quot;&gt;LCD EN pin&lt;/span&gt;" style="text;html=1;strokeColor=none;fillColor=none;align=center;verticalAlign=middle;whiteSpace=wrap;rounded=0;" vertex="1" parent="1">
          <mxGeometry x="665" y="624" width="60" height="15" as="geometry" />
        </mxCell>
        <mxCell id="0IAkI9OCKzNmR89N-cbS-41" value="" style="endArrow=none;html=1;rounded=0;strokeColor=#FF8000;strokeWidth=4;" edge="1" parent="1">
          <mxGeometry width="50" height="50" relative="1" as="geometry">
            <mxPoint x="618" y="620" as="sourcePoint" />
            <mxPoint x="665.115" y="620.0039772039786" as="targetPoint" />
          </mxGeometry>
        </mxCell>
        <mxCell id="0IAkI9OCKzNmR89N-cbS-42" value="&lt;span style=&quot;font-size: 10px;&quot;&gt;LCD D4 pin&lt;/span&gt;" style="text;html=1;strokeColor=none;fillColor=none;align=center;verticalAlign=middle;whiteSpace=wrap;rounded=0;" vertex="1" parent="1">
          <mxGeometry x="664" y="611" width="60" height="15" as="geometry" />
        </mxCell>
        <mxCell id="0IAkI9OCKzNmR89N-cbS-43" value="" style="endArrow=none;html=1;rounded=0;strokeColor=#FF8000;strokeWidth=4;" edge="1" parent="1">
          <mxGeometry width="50" height="50" relative="1" as="geometry">
            <mxPoint x="618" y="607" as="sourcePoint" />
            <mxPoint x="665.115" y="607.0039772039786" as="targetPoint" />
          </mxGeometry>
        </mxCell>
        <mxCell id="0IAkI9OCKzNmR89N-cbS-44" value="&lt;span style=&quot;font-size: 10px;&quot;&gt;LCD D5 pin&lt;/span&gt;" style="text;html=1;strokeColor=none;fillColor=none;align=center;verticalAlign=middle;whiteSpace=wrap;rounded=0;" vertex="1" parent="1">
          <mxGeometry x="664" y="598" width="60" height="15" as="geometry" />
        </mxCell>
        <mxCell id="0IAkI9OCKzNmR89N-cbS-45" value="" style="endArrow=none;html=1;rounded=0;strokeColor=#FF8000;strokeWidth=4;" edge="1" parent="1">
          <mxGeometry width="50" height="50" relative="1" as="geometry">
            <mxPoint x="618" y="593" as="sourcePoint" />
            <mxPoint x="665.115" y="593.0039772039786" as="targetPoint" />
          </mxGeometry>
        </mxCell>
        <mxCell id="0IAkI9OCKzNmR89N-cbS-46" value="&lt;span style=&quot;font-size: 10px;&quot;&gt;LCD D6 pin&lt;/span&gt;" style="text;html=1;strokeColor=none;fillColor=none;align=center;verticalAlign=middle;whiteSpace=wrap;rounded=0;" vertex="1" parent="1">
          <mxGeometry x="664" y="584" width="60" height="15" as="geometry" />
        </mxCell>
        <mxCell id="0IAkI9OCKzNmR89N-cbS-47" value="" style="endArrow=none;html=1;rounded=0;strokeColor=#FF8000;strokeWidth=4;" edge="1" parent="1">
          <mxGeometry width="50" height="50" relative="1" as="geometry">
            <mxPoint x="618" y="580" as="sourcePoint" />
            <mxPoint x="665.115" y="580.0039772039786" as="targetPoint" />
          </mxGeometry>
        </mxCell>
        <mxCell id="0IAkI9OCKzNmR89N-cbS-48" value="&lt;span style=&quot;font-size: 10px;&quot;&gt;LCD D7 pin&lt;/span&gt;" style="text;html=1;strokeColor=none;fillColor=none;align=center;verticalAlign=middle;whiteSpace=wrap;rounded=0;" vertex="1" parent="1">
          <mxGeometry x="664" y="571" width="60" height="15" as="geometry" />
        </mxCell>
        <mxCell id="0IAkI9OCKzNmR89N-cbS-50" value="&lt;font style=&quot;font-size: 10px;&quot;&gt;LCD backlight +5v (pin 15), and logic +5v (pin 2)&lt;/font&gt;" style="text;html=1;strokeColor=none;fillColor=none;align=center;verticalAlign=middle;whiteSpace=wrap;rounded=0;" vertex="1" parent="1">
          <mxGeometry x="96" y="518" width="222" height="15" as="geometry" />
        </mxCell>
        <mxCell id="0IAkI9OCKzNmR89N-cbS-51" value="" style="endArrow=none;html=1;rounded=0;strokeColor=#FF0000;strokeWidth=4;" edge="1" parent="1">
          <mxGeometry width="50" height="50" relative="1" as="geometry">
            <mxPoint x="319" y="527" as="sourcePoint" />
            <mxPoint x="339" y="527" as="targetPoint" />
          </mxGeometry>
        </mxCell>
        <mxCell id="0IAkI9OCKzNmR89N-cbS-52" value="" style="endArrow=none;html=1;rounded=0;strokeColor=#FF0000;strokeWidth=4;" edge="1" parent="1">
          <mxGeometry width="50" height="50" relative="1" as="geometry">
            <mxPoint x="337" y="529" as="sourcePoint" />
            <mxPoint x="337" y="539" as="targetPoint" />
          </mxGeometry>
        </mxCell>
        <mxCell id="0IAkI9OCKzNmR89N-cbS-53" value="&lt;font style=&quot;font-size: 10px;&quot;&gt;LCD backlight GND (pin 16), and logic GND (pin 1)&lt;/font&gt;" style="text;html=1;strokeColor=none;fillColor=none;align=center;verticalAlign=middle;whiteSpace=wrap;rounded=0;" vertex="1" parent="1">
          <mxGeometry x="86" y="556" width="230" height="15" as="geometry" />
        </mxCell>
        <mxCell id="0IAkI9OCKzNmR89N-cbS-54" value="" style="endArrow=none;html=1;rounded=0;strokeColor=#000000;strokeWidth=4;" edge="1" parent="1">
          <mxGeometry width="50" height="50" relative="1" as="geometry">
            <mxPoint x="337" y="554" as="sourcePoint" />
            <mxPoint x="337" y="564" as="targetPoint" />
          </mxGeometry>
        </mxCell>
        <mxCell id="0IAkI9OCKzNmR89N-cbS-55" value="" style="endArrow=none;html=1;rounded=0;strokeColor=#000000;strokeWidth=4;" edge="1" parent="1">
          <mxGeometry width="50" height="50" relative="1" as="geometry">
            <mxPoint x="319" y="565" as="sourcePoint" />
            <mxPoint x="339" y="565" as="targetPoint" />
          </mxGeometry>
        </mxCell>
        <mxCell id="0IAkI9OCKzNmR89N-cbS-56" value="" style="endArrow=none;html=1;rounded=0;strokeColor=#00FFFF;strokeWidth=4;" edge="1" parent="1">
          <mxGeometry width="50" height="50" relative="1" as="geometry">
            <mxPoint x="618" y="558" as="sourcePoint" />
            <mxPoint x="665.115" y="558.0039772039786" as="targetPoint" />
          </mxGeometry>
        </mxCell>
        <mxCell id="0IAkI9OCKzNmR89N-cbS-57" value="&lt;font style=&quot;font-size: 10px;&quot;&gt;On/Off toggle switch&lt;/font&gt;" style="text;html=1;strokeColor=none;fillColor=none;align=center;verticalAlign=middle;whiteSpace=wrap;rounded=0;" vertex="1" parent="1">
          <mxGeometry x="665" y="550" width="95" height="15" as="geometry" />
        </mxCell>
      </root>
    </mxGraphModel>
  </diagram>
</mxfile>
